<svg width="21" height="11" viewBox="0 0 21 11" fill="none" xmlns="http://www.w3.org/2000/svg">
<path d="M2.4 5.10986C2.4 3.39986 3.79 2.00986 5.5 2.00986H9.5V0.109863H5.5C2.74 0.109863 0.5 2.34986 0.5 5.10986C0.5 7.86986 2.74 10.1099 5.5 10.1099H9.5V8.20986H5.5C3.79 8.20986 2.4 6.81986 2.4 5.10986ZM6.5 6.10986H14.5V4.10986H6.5V6.10986ZM15.5 0.109863H11.5V2.00986H15.5C17.21 2.00986 18.6 3.39986 18.6 5.10986C18.6 6.81986 17.21 8.20986 15.5 8.20986H11.5V10.1099H15.5C18.26 10.1099 20.5 7.86986 20.5 5.10986C20.5 2.34986 18.26 0.109863 15.5 0.109863Z" fill="white"/>
</svg>
