<svg width="16" height="16" viewBox="0 0 16 16" fill="none" xmlns="http://www.w3.org/2000/svg">
<path d="M15.0083 0.503662H0.992312C0.608312 0.503662 0.320312 0.791662 0.320312 1.17566V15.2877C0.320312 15.5757 0.608312 15.8637 0.992312 15.8637H15.1043C15.4883 15.8637 15.7763 15.5757 15.7763 15.1917V1.17566C15.6803 0.791662 15.3923 0.503662 15.0083 0.503662ZM4.83231 13.5597H2.62431V6.26366H4.92831V13.5597H4.83231ZM3.77631 5.30366C3.00831 5.30366 2.43231 4.63166 2.43231 3.95966C2.43231 3.19166 3.00831 2.61566 3.77631 2.61566C4.54431 2.61566 5.12031 3.19166 5.12031 3.95966C5.02431 4.63166 4.44831 5.30366 3.77631 5.30366ZM13.3763 13.5597H11.0723V10.0077C11.0723 9.14366 11.0723 8.08766 9.92031 8.08766C8.76831 8.08766 8.57631 9.04766 8.57631 10.0077V13.6557H6.27231V6.26366H8.48031V7.22366C8.76831 6.64766 9.53631 6.07166 10.5923 6.07166C12.8963 6.07166 13.2803 7.60766 13.2803 9.52766V13.5597H13.3763Z" fill="white"/>
</svg>
