<svg width="16" height="17" viewBox="0 0 16 17" fill="none" xmlns="http://www.w3.org/2000/svg">
<g clip-path="url(#clip0_596_1344)">
<path d="M14.4149 1.79828C14.2202 1.80835 14.037 1.87134 13.874 1.94188H13.8717C13.7065 2.01494 12.9213 2.38277 11.7288 2.93955C10.5362 3.49886 8.98831 4.22444 7.45177 4.94499C4.38321 6.38355 1.3667 7.79945 1.3667 7.79945L1.40291 7.78434C1.40291 7.78434 1.19471 7.85991 0.977468 8.02619C0.866588 8.10681 0.744388 8.21766 0.638029 8.3915C0.531671 8.56534 0.445678 8.83239 0.47736 9.10701C0.529408 9.57309 0.800962 9.85274 0.995577 10.0064C1.19245 10.1626 1.38027 10.2357 1.38027 10.2357H1.3848L4.21349 11.2963C4.34022 11.7499 5.07567 14.4405 5.25218 15.0604C5.35628 15.4306 5.45811 15.6624 5.58484 15.8388C5.64594 15.9295 5.71835 16.0051 5.80434 16.0655C5.83829 16.0882 5.87449 16.1058 5.9107 16.121C5.92201 16.1285 5.93333 16.131 5.94691 16.1336L5.91749 16.126C5.92654 16.1285 5.93333 16.1361 5.94012 16.1386C5.96275 16.1462 5.97859 16.1486 6.00801 16.1537C6.45607 16.3049 6.81588 15.995 6.81588 15.995L6.83625 15.9773L8.50631 14.2844L11.3056 16.6752L11.3689 16.7054C11.9528 16.9901 12.5434 16.8315 12.8557 16.5517C13.1703 16.2696 13.2924 15.9093 13.2924 15.9093L13.3128 15.8514L15.4761 3.51397C15.5373 3.20914 15.5531 2.92444 15.4853 2.64731C15.4173 2.37018 15.2431 2.11068 15.0327 1.97212C14.82 1.83103 14.6095 1.7882 14.4149 1.79828ZM14.356 3.12096C14.3538 3.16127 14.3606 3.15622 14.3448 3.23432V3.24188L12.2017 15.4508C12.1927 15.4684 12.1768 15.5063 12.1338 15.544C12.0886 15.5843 12.0523 15.6095 11.8646 15.5264L8.44068 12.6039L6.37234 14.7025L6.80682 11.6138C6.80682 11.6138 12.17 6.04848 12.4008 5.80914C12.6316 5.56979 12.5547 5.5194 12.5547 5.5194C12.5705 5.22716 12.2062 5.43375 12.2062 5.43375L5.15261 10.2987L5.15035 10.286L1.76951 9.01883V9.01631C1.76724 9.01631 1.76271 9.01379 1.76045 9.01379C1.76271 9.01379 1.77856 9.00623 1.77856 9.00623L1.79666 8.99616L1.81477 8.9886C1.81477 8.9886 4.83353 7.5727 7.9021 6.13413C9.43868 5.41359 10.9865 4.68801 12.1768 4.1287C13.3672 3.57192 14.2474 3.16378 14.2972 3.14111C14.3448 3.12096 14.3221 3.12096 14.356 3.12096Z" fill="white"/>
</g>
<defs>
<clipPath id="clip0_596_1344">
<rect width="16" height="16" fill="white" transform="translate(0 0.859863)"/>
</clipPath>
</defs>
</svg>
