<svg width="67" height="51" viewBox="0 0 67 51" fill="none" xmlns="http://www.w3.org/2000/svg">
<path d="M6.75547 27.0811C6.60317 27.152 6.46081 27.2426 6.33203 27.3505L6.75547 27.0811Z" fill="white"/>
<g filter="url(#filter0_dii_508_2)">
<path d="M27.5436 34.7992C26.7135 34.1199 25.941 33.3731 25.2339 32.5665L16.8613 37.7633L19.8062 39.5918L20.6338 39.0914C20.8066 38.9408 21.0013 38.8175 21.2112 38.7257L27.5436 34.7992Z" fill="white"/>
</g>
<g filter="url(#filter1_dii_508_2)">
<path d="M22.1731 27.8317C21.7576 26.86 21.4229 25.8557 21.1722 24.8291L9.75856 31.8544L9.41211 32.0661C10.0453 32.8996 10.7611 33.667 11.5486 34.3565L11.9913 34.0871L12.8189 33.5674L22.1731 27.8317Z" fill="white"/>
</g>
<g filter="url(#filter2_dii_508_2)">
<path d="M20.5177 18.5544L29.3329 13.1074L33.1824 10.7593H33.3364L33.5674 10.509C33.4517 10.3757 33.3661 10.219 33.3163 10.0496C33.2665 9.88027 33.2536 9.70218 33.2787 9.52743C33.3117 9.3834 33.3704 9.24649 33.4519 9.12324L33.5674 8.98851C33.7558 8.75829 34.0202 8.60277 34.3129 8.54986C34.6057 8.49695 34.9078 8.55011 35.1649 8.6998L46.0011 15.3979L48.1184 16.7259C48.4302 16.9467 48.7853 17.0986 49.1603 17.1716C49.5353 17.2446 49.9215 17.237 50.2933 17.1494C50.8236 17.0241 51.3048 16.7442 51.6759 16.3452C52.0471 15.9462 52.2914 15.446 52.3779 14.908C52.4645 14.37 52.3895 13.8184 52.1623 13.3231C51.9351 12.8279 51.5659 12.4111 51.1017 12.1258L37.4938 3.59925C33.2571 0.987134 28.1779 0.10499 23.3085 1.13559C22.528 1.30647 21.757 1.51848 20.9988 1.77076C20.3252 2.02097 19.6708 2.29043 19.0741 2.59839C17.6533 2.91915 16.1635 2.67775 14.9167 1.92473L11.8756 0L0 19.2473L2.75237 20.9604L4.46538 22.019C5.33642 22.7954 5.94222 23.8253 6.19764 24.9638V25.2333C6.19764 25.6375 6.39012 26.0224 6.48635 26.4266L6.71732 27.1388L20.5177 18.5544Z" fill="white"/>
</g>
<g filter="url(#filter3_dii_508_2)">
<path d="M55.1234 0L52.0823 1.92473C50.8565 2.67603 49.39 2.93077 47.9827 2.63689C47.3475 2.32893 46.6738 2.05947 46.0579 1.80925C45.2816 1.542 44.4913 1.31711 43.6905 1.13559C40.3046 0.415263 36.7872 0.62139 33.5087 1.73226C34.893 2.22125 36.2168 2.86703 37.4544 3.65699L51.043 12.1451C51.5072 12.4304 51.8763 12.8471 52.1035 13.3424C52.3307 13.8377 52.4058 14.3893 52.3192 14.9273C52.2327 15.4653 51.9883 15.9655 51.6172 16.3645C51.2461 16.7635 50.7649 17.0434 50.2346 17.1686C49.8703 17.2451 49.494 17.2452 49.1296 17.169C48.7652 17.0929 48.4206 16.942 48.1174 16.7259L46.0002 15.3979L35.1447 8.58431C34.8876 8.43462 34.5855 8.38146 34.2927 8.43437C33.9999 8.48728 33.7356 8.64281 33.5471 8.87302L33.6626 9.00776C33.7954 9.23064 33.8557 9.48931 33.835 9.74794C33.8143 10.0066 33.7137 10.2524 33.5471 10.4513L33.3162 10.7015H33.1622L29.3127 13.0497L20.5167 18.5544L6.77409 27.0618L6.35065 27.3312C5.99788 27.5911 5.71125 27.9304 5.51397 28.3216C5.31668 28.7128 5.21428 29.145 5.21506 29.5832C5.20903 30.0701 5.32962 30.5502 5.56501 30.9764C5.8004 31.4027 6.14251 31.7605 6.55781 32.0147C6.97311 32.2689 7.44734 32.4109 7.93402 32.4266C8.4207 32.4424 8.90312 32.3314 9.33399 32.1046L9.68044 31.8928L21.1711 24.8291C21.4467 25.858 21.8072 26.8623 22.249 27.8317L12.9717 33.6059L12.1441 34.1255C11.7039 34.5074 11.3923 35.0158 11.252 35.5814C11.1116 36.1469 11.1493 36.7421 11.3599 37.2854C11.5705 37.8287 11.9437 38.2938 12.4286 38.6171C12.9135 38.9403 13.4863 39.1059 14.0688 39.0914C14.7851 39.0894 15.4736 38.814 15.9936 38.3215L16.9367 37.744L25.3093 32.5473C26.0163 33.3539 26.7889 34.1006 27.619 34.7799L21.2866 38.6294C21.0766 38.7212 20.8819 38.8445 20.7092 38.9951C20.368 39.2501 20.0911 39.5812 19.9006 39.9622C19.7101 40.3432 19.6113 40.7634 19.6121 41.1893C19.6121 41.9397 19.9102 42.6594 20.4408 43.19C20.9714 43.7206 21.691 44.0187 22.4414 44.0187C22.8278 44.0134 23.2091 43.9306 23.5629 43.7752C23.9166 43.6198 24.2356 43.395 24.5009 43.114L24.5971 43.2103L25.2708 42.8061L30.6215 39.4763L32.2383 38.4754V36.5699C32.301 35.8688 32.6245 35.2168 33.1449 34.7428C33.6652 34.2687 34.3445 34.0073 35.0484 34.0101C35.794 34.015 36.5079 34.3121 37.0368 34.8375C37.5658 35.3628 37.8677 36.0747 37.8778 36.8202V45.3082L40.9959 43.3835V42.9986V32.451C41.0262 31.7711 41.3073 31.1265 41.785 30.6418C42.0462 30.3622 42.3621 30.1394 42.7131 29.9871C43.0641 29.8348 43.4426 29.7562 43.8252 29.7564C44.2073 29.7596 44.5848 29.8396 44.9353 29.9917C45.2858 30.1438 45.6021 30.3649 45.8654 30.6418C46.358 31.1618 46.6334 31.8503 46.6353 32.5665V32.7205V39.9767L49.7534 38.052V30.7957V30.0836C49.8483 29.6674 50.036 29.2781 50.3027 28.9447C50.5694 28.6114 50.908 28.3427 51.2932 28.1589C51.6729 27.9815 52.0868 27.8896 52.5058 27.8894C53.1476 27.8915 53.7696 28.1117 54.2698 28.5139C54.7699 28.9161 55.1184 29.4764 55.2581 30.1028V34.4142C57.3294 32.6997 58.932 30.4879 59.916 27.9856C60.2612 27.0724 60.5316 26.1326 60.7244 25.1755V24.9061C60.9915 23.7722 61.5954 22.7456 62.4567 21.9612L64.1697 20.9026L66.999 19.2473L55.1234 0Z" fill="white" fill-opacity="0.3" shape-rendering="crispEdges"/>
</g>
<g filter="url(#filter4_dii_508_2)">
<path d="M46.5594 32.7205V32.5857C46.5574 31.8695 46.282 31.181 45.7895 30.661C45.5262 30.3842 45.2099 30.1631 44.8594 30.011C44.5089 29.8589 44.1313 29.7788 43.7493 29.7756C43.3667 29.7755 42.9881 29.854 42.6372 30.0063C42.2862 30.1586 41.9703 30.3815 41.7091 30.661C41.2314 31.1458 40.9502 31.7904 40.9199 32.4703V43.0755V43.4605C41.0165 44.1292 41.3509 44.7408 41.8616 45.1831C42.3724 45.6254 43.0255 45.8688 43.7012 45.8688C44.3768 45.8688 45.0299 45.6254 45.5407 45.1831C46.0515 44.7408 46.3858 44.1292 46.4824 43.4605V39.996V32.7205H46.5594Z" fill="white"/>
</g>
<g filter="url(#filter5_dii_508_2)">
<path d="M37.8023 36.8971C37.7923 36.1516 37.4903 35.4398 36.9614 34.9144C36.4324 34.389 35.7185 34.0919 34.973 34.087C34.281 34.0823 33.6117 34.333 33.0932 34.7912C32.5747 35.2493 32.2434 35.8827 32.1628 36.5699V40.5348L30.5461 39.534L25.1953 42.8638L28.1402 44.6923L28.8716 44.2688L32.0089 42.3441V48.9652H32.1628C32.3482 49.5816 32.741 50.115 33.2746 50.475C33.8082 50.8351 34.4498 50.9996 35.0908 50.9407C35.7318 50.8818 36.3328 50.6031 36.7919 50.1519C37.2509 49.7007 37.5399 49.1046 37.6099 48.4647V45.3852V36.8971H37.8023Z" fill="white"/>
</g>
<g filter="url(#filter6_dii_508_2)">
<path d="M55.3172 30.7958V30.1799C55.1775 29.5535 54.829 28.9932 54.3289 28.5909C53.8287 28.1887 53.2067 27.9685 52.5649 27.9664C52.1458 27.9666 51.7319 28.0586 51.3523 28.2359C50.9671 28.4198 50.6284 28.6884 50.3618 29.0218C50.0951 29.3551 49.9073 29.7444 49.8125 30.1606V30.7958V38.0328V38.9567C49.9091 39.6254 50.2434 40.2369 50.7542 40.6792C51.265 41.1215 51.9181 41.365 52.5937 41.365C53.2694 41.365 53.9225 41.1215 54.4333 40.6792C54.9441 40.2369 55.2784 39.6254 55.375 38.9567V34.4335V30.7958H55.3172Z" fill="white"/>
</g>
<g filter="url(#filter7_dii_508_2)">
<path d="M32.1432 44.2689V42.3441L29.0058 44.2689C28.3907 44.6925 27.9691 45.3432 27.8338 46.0778C27.6984 46.8123 27.8604 47.5706 28.2841 48.1857C28.7078 48.8008 29.3585 49.2224 30.093 49.3578C30.8276 49.4931 31.5858 49.3312 32.2009 48.9075V44.2689H32.1432Z" fill="white" fill-opacity="0.3" shape-rendering="crispEdges"/>
</g>
<defs>
<filter id="filter0_dii_508_2" x="7.86133" y="23.5665" width="34.6816" height="32.0253" filterUnits="userSpaceOnUse" color-interpolation-filters="sRGB">
<feFlood flood-opacity="0" result="BackgroundImageFix"/>
<feColorMatrix in="SourceAlpha" type="matrix" values="0 0 0 0 0 0 0 0 0 0 0 0 0 0 0 0 0 0 127 0" result="hardAlpha"/>
<feOffset dx="6" dy="6"/>
<feGaussianBlur stdDeviation="4"/>
<feComposite in2="hardAlpha" operator="out"/>
<feColorMatrix type="matrix" values="0 0 0 0 0.0235294 0 0 0 0 0.478431 0 0 0 0 0.27451 0 0 0 0.3 0"/>
<feBlend mode="normal" in2="BackgroundImageFix" result="effect1_dropShadow_508_2"/>
<feBlend mode="normal" in="SourceGraphic" in2="effect1_dropShadow_508_2" result="shape"/>
<feColorMatrix in="SourceAlpha" type="matrix" values="0 0 0 0 0 0 0 0 0 0 0 0 0 0 0 0 0 0 127 0" result="hardAlpha"/>
<feOffset dx="-10" dy="-11"/>
<feGaussianBlur stdDeviation="4.5"/>
<feComposite in2="hardAlpha" operator="arithmetic" k2="-1" k3="1"/>
<feColorMatrix type="matrix" values="0 0 0 0 0.0235294 0 0 0 0 0.478431 0 0 0 0 0.27451 0 0 0 0.5 0"/>
<feBlend mode="normal" in2="shape" result="effect2_innerShadow_508_2"/>
<feColorMatrix in="SourceAlpha" type="matrix" values="0 0 0 0 0 0 0 0 0 0 0 0 0 0 0 0 0 0 127 0" result="hardAlpha"/>
<feOffset dx="15" dy="16"/>
<feGaussianBlur stdDeviation="9.5"/>
<feComposite in2="hardAlpha" operator="arithmetic" k2="-1" k3="1"/>
<feColorMatrix type="matrix" values="0 0 0 0 0.0235294 0 0 0 0 0.478431 0 0 0 0 0.27451 0 0 0 0.4 0"/>
<feBlend mode="normal" in2="effect2_innerShadow_508_2" result="effect3_innerShadow_508_2"/>
</filter>
<filter id="filter1_dii_508_2" x="0.412109" y="15.8291" width="36.7617" height="34.5275" filterUnits="userSpaceOnUse" color-interpolation-filters="sRGB">
<feFlood flood-opacity="0" result="BackgroundImageFix"/>
<feColorMatrix in="SourceAlpha" type="matrix" values="0 0 0 0 0 0 0 0 0 0 0 0 0 0 0 0 0 0 127 0" result="hardAlpha"/>
<feOffset dx="6" dy="6"/>
<feGaussianBlur stdDeviation="4"/>
<feComposite in2="hardAlpha" operator="out"/>
<feColorMatrix type="matrix" values="0 0 0 0 0.0235294 0 0 0 0 0.478431 0 0 0 0 0.27451 0 0 0 0.3 0"/>
<feBlend mode="normal" in2="BackgroundImageFix" result="effect1_dropShadow_508_2"/>
<feBlend mode="normal" in="SourceGraphic" in2="effect1_dropShadow_508_2" result="shape"/>
<feColorMatrix in="SourceAlpha" type="matrix" values="0 0 0 0 0 0 0 0 0 0 0 0 0 0 0 0 0 0 127 0" result="hardAlpha"/>
<feOffset dx="-10" dy="-11"/>
<feGaussianBlur stdDeviation="4.5"/>
<feComposite in2="hardAlpha" operator="arithmetic" k2="-1" k3="1"/>
<feColorMatrix type="matrix" values="0 0 0 0 0.0235294 0 0 0 0 0.478431 0 0 0 0 0.27451 0 0 0 0.5 0"/>
<feBlend mode="normal" in2="shape" result="effect2_innerShadow_508_2"/>
<feColorMatrix in="SourceAlpha" type="matrix" values="0 0 0 0 0 0 0 0 0 0 0 0 0 0 0 0 0 0 127 0" result="hardAlpha"/>
<feOffset dx="15" dy="16"/>
<feGaussianBlur stdDeviation="9.5"/>
<feComposite in2="hardAlpha" operator="arithmetic" k2="-1" k3="1"/>
<feColorMatrix type="matrix" values="0 0 0 0 0.0235294 0 0 0 0 0.478431 0 0 0 0 0.27451 0 0 0 0.4 0"/>
<feBlend mode="normal" in2="effect2_innerShadow_508_2" result="effect3_innerShadow_508_2"/>
</filter>
<filter id="filter2_dii_508_2" x="-9" y="-9" width="76.4121" height="52.1388" filterUnits="userSpaceOnUse" color-interpolation-filters="sRGB">
<feFlood flood-opacity="0" result="BackgroundImageFix"/>
<feColorMatrix in="SourceAlpha" type="matrix" values="0 0 0 0 0 0 0 0 0 0 0 0 0 0 0 0 0 0 127 0" result="hardAlpha"/>
<feOffset dx="6" dy="6"/>
<feGaussianBlur stdDeviation="4"/>
<feComposite in2="hardAlpha" operator="out"/>
<feColorMatrix type="matrix" values="0 0 0 0 0.0235294 0 0 0 0 0.478431 0 0 0 0 0.27451 0 0 0 0.3 0"/>
<feBlend mode="normal" in2="BackgroundImageFix" result="effect1_dropShadow_508_2"/>
<feBlend mode="normal" in="SourceGraphic" in2="effect1_dropShadow_508_2" result="shape"/>
<feColorMatrix in="SourceAlpha" type="matrix" values="0 0 0 0 0 0 0 0 0 0 0 0 0 0 0 0 0 0 127 0" result="hardAlpha"/>
<feOffset dx="-10" dy="-11"/>
<feGaussianBlur stdDeviation="4.5"/>
<feComposite in2="hardAlpha" operator="arithmetic" k2="-1" k3="1"/>
<feColorMatrix type="matrix" values="0 0 0 0 0.0235294 0 0 0 0 0.478431 0 0 0 0 0.27451 0 0 0 0.5 0"/>
<feBlend mode="normal" in2="shape" result="effect2_innerShadow_508_2"/>
<feColorMatrix in="SourceAlpha" type="matrix" values="0 0 0 0 0 0 0 0 0 0 0 0 0 0 0 0 0 0 127 0" result="hardAlpha"/>
<feOffset dx="15" dy="16"/>
<feGaussianBlur stdDeviation="9.5"/>
<feComposite in2="hardAlpha" operator="arithmetic" k2="-1" k3="1"/>
<feColorMatrix type="matrix" values="0 0 0 0 0.0235294 0 0 0 0 0.478431 0 0 0 0 0.27451 0 0 0 0.4 0"/>
<feBlend mode="normal" in2="effect2_innerShadow_508_2" result="effect3_innerShadow_508_2"/>
</filter>
<filter id="filter3_dii_508_2" x="3.21484" y="-8" width="77.7852" height="67.3082" filterUnits="userSpaceOnUse" color-interpolation-filters="sRGB">
<feFlood flood-opacity="0" result="BackgroundImageFix"/>
<feColorMatrix in="SourceAlpha" type="matrix" values="0 0 0 0 0 0 0 0 0 0 0 0 0 0 0 0 0 0 127 0" result="hardAlpha"/>
<feOffset dx="6" dy="6"/>
<feGaussianBlur stdDeviation="4"/>
<feComposite in2="hardAlpha" operator="out"/>
<feColorMatrix type="matrix" values="0 0 0 0 0.298039 0 0 0 0 0.631373 0 0 0 0 0.482353 0 0 0 0.4 0"/>
<feBlend mode="normal" in2="BackgroundImageFix" result="effect1_dropShadow_508_2"/>
<feBlend mode="normal" in="SourceGraphic" in2="effect1_dropShadow_508_2" result="shape"/>
<feColorMatrix in="SourceAlpha" type="matrix" values="0 0 0 0 0 0 0 0 0 0 0 0 0 0 0 0 0 0 127 0" result="hardAlpha"/>
<feOffset dx="-1" dy="-13"/>
<feGaussianBlur stdDeviation="4"/>
<feComposite in2="hardAlpha" operator="arithmetic" k2="-1" k3="1"/>
<feColorMatrix type="matrix" values="0 0 0 0 0.294118 0 0 0 0 0.647059 0 0 0 0 0.490196 0 0 0 1 0"/>
<feBlend mode="normal" in2="shape" result="effect2_innerShadow_508_2"/>
<feColorMatrix in="SourceAlpha" type="matrix" values="0 0 0 0 0 0 0 0 0 0 0 0 0 0 0 0 0 0 127 0" result="hardAlpha"/>
<feOffset dx="-2" dy="5"/>
<feGaussianBlur stdDeviation="6.5"/>
<feComposite in2="hardAlpha" operator="arithmetic" k2="-1" k3="1"/>
<feColorMatrix type="matrix" values="0 0 0 0 0 0 0 0 0 0.316667 0 0 0 0 0.174921 0 0 0 1 0"/>
<feBlend mode="normal" in2="effect2_innerShadow_508_2" result="effect3_innerShadow_508_2"/>
</filter>
<filter id="filter4_dii_508_2" x="31.9199" y="20.7756" width="29.6387" height="41.0931" filterUnits="userSpaceOnUse" color-interpolation-filters="sRGB">
<feFlood flood-opacity="0" result="BackgroundImageFix"/>
<feColorMatrix in="SourceAlpha" type="matrix" values="0 0 0 0 0 0 0 0 0 0 0 0 0 0 0 0 0 0 127 0" result="hardAlpha"/>
<feOffset dx="6" dy="6"/>
<feGaussianBlur stdDeviation="4"/>
<feComposite in2="hardAlpha" operator="out"/>
<feColorMatrix type="matrix" values="0 0 0 0 0.0235294 0 0 0 0 0.478431 0 0 0 0 0.27451 0 0 0 0.3 0"/>
<feBlend mode="normal" in2="BackgroundImageFix" result="effect1_dropShadow_508_2"/>
<feBlend mode="normal" in="SourceGraphic" in2="effect1_dropShadow_508_2" result="shape"/>
<feColorMatrix in="SourceAlpha" type="matrix" values="0 0 0 0 0 0 0 0 0 0 0 0 0 0 0 0 0 0 127 0" result="hardAlpha"/>
<feOffset dx="-10" dy="-11"/>
<feGaussianBlur stdDeviation="4.5"/>
<feComposite in2="hardAlpha" operator="arithmetic" k2="-1" k3="1"/>
<feColorMatrix type="matrix" values="0 0 0 0 0.0235294 0 0 0 0 0.478431 0 0 0 0 0.27451 0 0 0 0.5 0"/>
<feBlend mode="normal" in2="shape" result="effect2_innerShadow_508_2"/>
<feColorMatrix in="SourceAlpha" type="matrix" values="0 0 0 0 0 0 0 0 0 0 0 0 0 0 0 0 0 0 127 0" result="hardAlpha"/>
<feOffset dx="15" dy="16"/>
<feGaussianBlur stdDeviation="9.5"/>
<feComposite in2="hardAlpha" operator="arithmetic" k2="-1" k3="1"/>
<feColorMatrix type="matrix" values="0 0 0 0 0.0235294 0 0 0 0 0.478431 0 0 0 0 0.27451 0 0 0 0.4 0"/>
<feBlend mode="normal" in2="effect2_innerShadow_508_2" result="effect3_innerShadow_508_2"/>
</filter>
<filter id="filter5_dii_508_2" x="16.1953" y="25.0869" width="36.6074" height="41.8655" filterUnits="userSpaceOnUse" color-interpolation-filters="sRGB">
<feFlood flood-opacity="0" result="BackgroundImageFix"/>
<feColorMatrix in="SourceAlpha" type="matrix" values="0 0 0 0 0 0 0 0 0 0 0 0 0 0 0 0 0 0 127 0" result="hardAlpha"/>
<feOffset dx="6" dy="6"/>
<feGaussianBlur stdDeviation="4"/>
<feComposite in2="hardAlpha" operator="out"/>
<feColorMatrix type="matrix" values="0 0 0 0 0.0235294 0 0 0 0 0.478431 0 0 0 0 0.27451 0 0 0 0.3 0"/>
<feBlend mode="normal" in2="BackgroundImageFix" result="effect1_dropShadow_508_2"/>
<feBlend mode="normal" in="SourceGraphic" in2="effect1_dropShadow_508_2" result="shape"/>
<feColorMatrix in="SourceAlpha" type="matrix" values="0 0 0 0 0 0 0 0 0 0 0 0 0 0 0 0 0 0 127 0" result="hardAlpha"/>
<feOffset dx="-10" dy="-11"/>
<feGaussianBlur stdDeviation="4.5"/>
<feComposite in2="hardAlpha" operator="arithmetic" k2="-1" k3="1"/>
<feColorMatrix type="matrix" values="0 0 0 0 0.0235294 0 0 0 0 0.478431 0 0 0 0 0.27451 0 0 0 0.5 0"/>
<feBlend mode="normal" in2="shape" result="effect2_innerShadow_508_2"/>
<feColorMatrix in="SourceAlpha" type="matrix" values="0 0 0 0 0 0 0 0 0 0 0 0 0 0 0 0 0 0 127 0" result="hardAlpha"/>
<feOffset dx="15" dy="16"/>
<feGaussianBlur stdDeviation="9.5"/>
<feComposite in2="hardAlpha" operator="arithmetic" k2="-1" k3="1"/>
<feColorMatrix type="matrix" values="0 0 0 0 0.0235294 0 0 0 0 0.478431 0 0 0 0 0.27451 0 0 0 0.4 0"/>
<feBlend mode="normal" in2="effect2_innerShadow_508_2" result="effect3_innerShadow_508_2"/>
</filter>
<filter id="filter6_dii_508_2" x="40.8125" y="18.9664" width="29.5625" height="38.3986" filterUnits="userSpaceOnUse" color-interpolation-filters="sRGB">
<feFlood flood-opacity="0" result="BackgroundImageFix"/>
<feColorMatrix in="SourceAlpha" type="matrix" values="0 0 0 0 0 0 0 0 0 0 0 0 0 0 0 0 0 0 127 0" result="hardAlpha"/>
<feOffset dx="6" dy="6"/>
<feGaussianBlur stdDeviation="4"/>
<feComposite in2="hardAlpha" operator="out"/>
<feColorMatrix type="matrix" values="0 0 0 0 0.0235294 0 0 0 0 0.478431 0 0 0 0 0.27451 0 0 0 0.3 0"/>
<feBlend mode="normal" in2="BackgroundImageFix" result="effect1_dropShadow_508_2"/>
<feBlend mode="normal" in="SourceGraphic" in2="effect1_dropShadow_508_2" result="shape"/>
<feColorMatrix in="SourceAlpha" type="matrix" values="0 0 0 0 0 0 0 0 0 0 0 0 0 0 0 0 0 0 127 0" result="hardAlpha"/>
<feOffset dx="-10" dy="-11"/>
<feGaussianBlur stdDeviation="4.5"/>
<feComposite in2="hardAlpha" operator="arithmetic" k2="-1" k3="1"/>
<feColorMatrix type="matrix" values="0 0 0 0 0.0235294 0 0 0 0 0.478431 0 0 0 0 0.27451 0 0 0 0.5 0"/>
<feBlend mode="normal" in2="shape" result="effect2_innerShadow_508_2"/>
<feColorMatrix in="SourceAlpha" type="matrix" values="0 0 0 0 0 0 0 0 0 0 0 0 0 0 0 0 0 0 127 0" result="hardAlpha"/>
<feOffset dx="15" dy="16"/>
<feGaussianBlur stdDeviation="9.5"/>
<feComposite in2="hardAlpha" operator="arithmetic" k2="-1" k3="1"/>
<feColorMatrix type="matrix" values="0 0 0 0 0.0235294 0 0 0 0 0.478431 0 0 0 0 0.27451 0 0 0 0.4 0"/>
<feBlend mode="normal" in2="effect2_innerShadow_508_2" result="effect3_innerShadow_508_2"/>
</filter>
<filter id="filter7_dii_508_2" x="25.7871" y="34.3441" width="20.4141" height="29.0603" filterUnits="userSpaceOnUse" color-interpolation-filters="sRGB">
<feFlood flood-opacity="0" result="BackgroundImageFix"/>
<feColorMatrix in="SourceAlpha" type="matrix" values="0 0 0 0 0 0 0 0 0 0 0 0 0 0 0 0 0 0 127 0" result="hardAlpha"/>
<feOffset dx="6" dy="6"/>
<feGaussianBlur stdDeviation="4"/>
<feComposite in2="hardAlpha" operator="out"/>
<feColorMatrix type="matrix" values="0 0 0 0 0.298039 0 0 0 0 0.631373 0 0 0 0 0.482353 0 0 0 0.4 0"/>
<feBlend mode="normal" in2="BackgroundImageFix" result="effect1_dropShadow_508_2"/>
<feBlend mode="normal" in="SourceGraphic" in2="effect1_dropShadow_508_2" result="shape"/>
<feColorMatrix in="SourceAlpha" type="matrix" values="0 0 0 0 0 0 0 0 0 0 0 0 0 0 0 0 0 0 127 0" result="hardAlpha"/>
<feOffset dx="-1" dy="-13"/>
<feGaussianBlur stdDeviation="4"/>
<feComposite in2="hardAlpha" operator="arithmetic" k2="-1" k3="1"/>
<feColorMatrix type="matrix" values="0 0 0 0 0.294118 0 0 0 0 0.647059 0 0 0 0 0.490196 0 0 0 1 0"/>
<feBlend mode="normal" in2="shape" result="effect2_innerShadow_508_2"/>
<feColorMatrix in="SourceAlpha" type="matrix" values="0 0 0 0 0 0 0 0 0 0 0 0 0 0 0 0 0 0 127 0" result="hardAlpha"/>
<feOffset dx="-2" dy="5"/>
<feGaussianBlur stdDeviation="6.5"/>
<feComposite in2="hardAlpha" operator="arithmetic" k2="-1" k3="1"/>
<feColorMatrix type="matrix" values="0 0 0 0 0 0 0 0 0 0.316667 0 0 0 0 0.174921 0 0 0 1 0"/>
<feBlend mode="normal" in2="effect2_innerShadow_508_2" result="effect3_innerShadow_508_2"/>
</filter>
</defs>
</svg>
