<svg width="67" height="67" viewBox="0 0 67 67" fill="none" xmlns="http://www.w3.org/2000/svg">
<path d="M37.7069 64.1917H29.2754V64.554H37.7069V64.1917Z" fill="white"/>
<g filter="url(#filter0_ii_289_6085)">
<path d="M52.0374 37.1235C52.076 32.1931 50.1606 27.4485 46.7113 23.93C43.2619 20.4114 38.56 18.406 33.6364 18.3534C28.7111 18.406 24.0073 20.4108 20.5551 23.9289C17.1028 27.4469 15.1834 32.1914 15.2172 37.1235C15.2029 40.5826 16.1389 43.979 17.9228 46.9412C19.7066 49.9033 22.2696 52.3173 25.3315 53.9188C25.3315 54.0275 25.3315 54.1544 25.3315 54.2812V63.7931C25.3266 64.6134 25.6449 65.4025 26.2173 65.9893C26.7898 66.5761 27.5702 66.9132 28.3893 66.9275H29.4025H37.834H38.8292C39.6482 66.9132 40.4287 66.5761 41.0011 65.9893C41.5735 65.4025 41.8918 64.6134 41.887 63.7931V54.3537C41.8968 54.2331 41.8968 54.1119 41.887 53.9913C44.9665 52.389 47.5441 49.9659 49.3353 46.9894C51.1265 44.0128 52.0616 40.5986 52.0374 37.1235ZM22.726 34.1341C22.6869 34.2778 22.6022 34.405 22.4848 34.4965C22.3673 34.5879 22.2234 34.6388 22.0746 34.6414H21.8937C21.7921 34.6356 21.6928 34.6084 21.6024 34.5616C21.512 34.5147 21.4325 34.4493 21.369 34.3696C21.3113 34.286 21.2719 34.1912 21.2532 34.0913C21.2344 33.9914 21.2369 33.8887 21.2604 33.7898C21.872 31.3012 23.1758 29.0372 25.0205 27.2606C26.8651 25.484 29.1751 24.2676 31.6823 23.7525C31.7793 23.7332 31.8794 23.7362 31.9751 23.7613C32.0708 23.7865 32.1595 23.8332 32.2345 23.8978C32.3095 23.9624 32.3688 24.0433 32.4079 24.1342C32.447 24.2252 32.4649 24.3239 32.4603 24.4229V24.586C32.4606 24.7404 32.409 24.8905 32.3139 25.0121C32.2187 25.1337 32.0855 25.2197 31.9356 25.2563C29.7226 25.7202 27.6848 26.799 26.056 28.3692C24.4271 29.9394 23.273 31.9373 22.726 34.1341ZM40.7109 64.1554C40.7016 64.2676 40.6493 64.3718 40.565 64.4461C40.4806 64.5204 40.3708 64.5591 40.2586 64.554H26.9961C26.8838 64.5591 26.774 64.5204 26.6896 64.4461C26.6053 64.3718 26.553 64.2676 26.5437 64.1554V63.4126C26.553 63.3005 26.6053 63.1963 26.6896 63.122C26.774 63.0476 26.8838 63.0089 26.9961 63.014H40.2586C40.3708 63.0089 40.4806 63.0476 40.565 63.122C40.6493 63.1963 40.7016 63.3005 40.7109 63.4126V64.1554ZM40.7109 60.5319C40.7016 60.644 40.6493 60.7482 40.565 60.8225C40.4806 60.8968 40.3708 60.9355 40.2586 60.9305H26.9961C26.8838 60.9355 26.774 60.8968 26.6896 60.8225C26.6053 60.7482 26.553 60.644 26.5437 60.5319V59.8253C26.5483 59.7705 26.5636 59.7171 26.5889 59.6683C26.6141 59.6194 26.6487 59.5761 26.6908 59.5407C26.7328 59.5054 26.7815 59.4787 26.8338 59.4622C26.8862 59.4457 26.9414 59.4398 26.9961 59.4448H40.2586C40.3132 59.4398 40.3684 59.4457 40.4208 59.4622C40.4732 59.4787 40.5218 59.5054 40.5638 59.5407C40.6059 59.5761 40.6405 59.6194 40.6658 59.6683C40.691 59.7171 40.7063 59.7705 40.7109 59.8253V60.5319ZM40.7109 56.9083C40.7016 57.0204 40.6493 57.1246 40.565 57.1989C40.4806 57.2733 40.3708 57.312 40.2586 57.3069H26.9961C26.8838 57.312 26.774 57.2733 26.6896 57.1989C26.6053 57.1246 26.553 57.0204 26.5437 56.9083V56.2017C26.553 56.0896 26.6053 55.9854 26.6896 55.9111C26.774 55.8367 26.8838 55.798 26.9961 55.8031H40.2586C40.3708 55.798 40.4806 55.8367 40.565 55.9111C40.6493 55.9854 40.7016 56.0896 40.7109 56.2017V56.9083Z" fill="white"/>
</g>
<g filter="url(#filter1_dii_289_6085)">
<path d="M32.259 1.37693V11.994C32.2368 12.1869 32.2556 12.3823 32.3141 12.5673C32.3727 12.7524 32.4696 12.923 32.5986 13.0679C32.7276 13.2128 32.8857 13.3288 33.0626 13.4082C33.2396 13.4876 33.4312 13.5287 33.6251 13.5287C33.819 13.5287 34.0107 13.4876 34.1876 13.4082C34.3645 13.3288 34.5226 13.2128 34.6516 13.0679C34.7806 12.923 34.8776 12.7524 34.9361 12.5673C34.9946 12.3823 35.0134 12.1869 34.9912 11.994V1.37693C35.0134 1.18408 34.9946 0.988703 34.9361 0.803625C34.8776 0.618548 34.7806 0.447953 34.6516 0.303033C34.5226 0.158114 34.3645 0.0421469 34.1876 -0.0372591C34.0107 -0.116665 33.819 -0.157715 33.6251 -0.157715C33.4312 -0.157715 33.2396 -0.116665 33.0626 -0.0372591C32.8857 0.0421469 32.7276 0.158114 32.5986 0.303033C32.4696 0.447953 32.3727 0.618548 32.3141 0.803625C32.2556 0.988703 32.2368 1.18408 32.259 1.37693Z" fill="white"/>
</g>
<g filter="url(#filter2_dii_289_6085)">
<path d="M1.91773 20.9805C1.75444 20.9026 1.57706 20.8586 1.39632 20.8512C1.21558 20.8438 1.03522 20.8732 0.86612 20.9375C0.697025 21.0019 0.542703 21.0999 0.412471 21.2256C0.282239 21.3513 0.178798 21.5021 0.108391 21.669C-0.0386086 22.0008 -0.048843 22.3772 0.0799137 22.7165C0.20867 23.0558 0.466003 23.3305 0.795942 23.4808L10.494 27.7928C10.6566 27.9211 10.846 28.011 11.0481 28.0557C11.2502 28.1005 11.4598 28.099 11.6612 28.0514C11.8627 28.0037 12.0508 27.9111 12.2115 27.7805C12.3722 27.65 12.5014 27.4847 12.5895 27.2971C12.6776 27.1096 12.7222 26.9045 12.7201 26.6973C12.718 26.49 12.6692 26.2859 12.5773 26.1002C12.4855 25.9144 12.3529 25.7519 12.1896 25.6246C12.0262 25.4973 11.8363 25.4086 11.6339 25.365L1.91773 20.9805Z" fill="white"/>
</g>
<g filter="url(#filter3_dii_289_6085)">
<path d="M65.1353 20.9805L55.3648 25.365C55.0681 25.5348 54.8452 25.809 54.7394 26.1343C54.6336 26.4597 54.6526 26.8128 54.7927 27.1249C54.9327 27.437 55.1837 27.6857 55.4969 27.8226C55.81 27.9594 56.1628 27.9747 56.4866 27.8653L66.1847 23.5532C66.3534 23.4842 66.5069 23.3826 66.6363 23.2542C66.7658 23.1258 66.8688 22.9732 66.9394 22.8049C67.0099 22.6367 67.0467 22.4562 67.0476 22.2737C67.0485 22.0912 67.0135 21.9104 66.9446 21.7414C66.8757 21.5725 66.7742 21.4188 66.646 21.2892C66.5178 21.1595 66.3653 21.0564 66.1973 20.9857C66.0293 20.9151 65.849 20.8782 65.6668 20.8773C65.4846 20.8764 65.304 20.9115 65.1353 20.9805Z" fill="white"/>
</g>
<defs>
<filter id="filter0_ii_289_6085" x="6.2168" y="9.35339" width="60.8203" height="73.5741" filterUnits="userSpaceOnUse" color-interpolation-filters="sRGB">
<feFlood flood-opacity="0" result="BackgroundImageFix"/>
<feBlend mode="normal" in="SourceGraphic" in2="BackgroundImageFix" result="shape"/>
<feColorMatrix in="SourceAlpha" type="matrix" values="0 0 0 0 0 0 0 0 0 0 0 0 0 0 0 0 0 0 127 0" result="hardAlpha"/>
<feOffset dx="-10" dy="-11"/>
<feGaussianBlur stdDeviation="4.5"/>
<feComposite in2="hardAlpha" operator="arithmetic" k2="-1" k3="1"/>
<feColorMatrix type="matrix" values="0 0 0 0 0.0235294 0 0 0 0 0.478431 0 0 0 0 0.27451 0 0 0 0.5 0"/>
<feBlend mode="normal" in2="shape" result="effect1_innerShadow_289_6085"/>
<feColorMatrix in="SourceAlpha" type="matrix" values="0 0 0 0 0 0 0 0 0 0 0 0 0 0 0 0 0 0 127 0" result="hardAlpha"/>
<feOffset dx="15" dy="16"/>
<feGaussianBlur stdDeviation="9.5"/>
<feComposite in2="hardAlpha" operator="arithmetic" k2="-1" k3="1"/>
<feColorMatrix type="matrix" values="0 0 0 0 0.0235294 0 0 0 0 0.478431 0 0 0 0 0.27451 0 0 0 0.4 0"/>
<feBlend mode="normal" in2="effect1_innerShadow_289_6085" result="effect2_innerShadow_289_6085"/>
</filter>
<filter id="filter1_dii_289_6085" x="30.25" y="-8.15771" width="18.75" height="35.6864" filterUnits="userSpaceOnUse" color-interpolation-filters="sRGB">
<feFlood flood-opacity="0" result="BackgroundImageFix"/>
<feColorMatrix in="SourceAlpha" type="matrix" values="0 0 0 0 0 0 0 0 0 0 0 0 0 0 0 0 0 0 127 0" result="hardAlpha"/>
<feOffset dx="6" dy="6"/>
<feGaussianBlur stdDeviation="4"/>
<feComposite in2="hardAlpha" operator="out"/>
<feColorMatrix type="matrix" values="0 0 0 0 0.298039 0 0 0 0 0.631373 0 0 0 0 0.482353 0 0 0 0.4 0"/>
<feBlend mode="normal" in2="BackgroundImageFix" result="effect1_dropShadow_289_6085"/>
<feBlend mode="normal" in="SourceGraphic" in2="effect1_dropShadow_289_6085" result="shape"/>
<feColorMatrix in="SourceAlpha" type="matrix" values="0 0 0 0 0 0 0 0 0 0 0 0 0 0 0 0 0 0 127 0" result="hardAlpha"/>
<feOffset dx="-1" dy="-13"/>
<feGaussianBlur stdDeviation="4"/>
<feComposite in2="hardAlpha" operator="arithmetic" k2="-1" k3="1"/>
<feColorMatrix type="matrix" values="0 0 0 0 0.294118 0 0 0 0 0.647059 0 0 0 0 0.490196 0 0 0 1 0"/>
<feBlend mode="normal" in2="shape" result="effect2_innerShadow_289_6085"/>
<feColorMatrix in="SourceAlpha" type="matrix" values="0 0 0 0 0 0 0 0 0 0 0 0 0 0 0 0 0 0 127 0" result="hardAlpha"/>
<feOffset dx="-2" dy="5"/>
<feGaussianBlur stdDeviation="6.5"/>
<feComposite in2="hardAlpha" operator="arithmetic" k2="-1" k3="1"/>
<feColorMatrix type="matrix" values="0 0 0 0 0 0 0 0 0 0.316667 0 0 0 0 0.174921 0 0 0 1 0"/>
<feBlend mode="normal" in2="effect2_innerShadow_289_6085" result="effect3_innerShadow_289_6085"/>
</filter>
<filter id="filter2_dii_289_6085" x="-2.00977" y="12.8501" width="28.7305" height="29.2382" filterUnits="userSpaceOnUse" color-interpolation-filters="sRGB">
<feFlood flood-opacity="0" result="BackgroundImageFix"/>
<feColorMatrix in="SourceAlpha" type="matrix" values="0 0 0 0 0 0 0 0 0 0 0 0 0 0 0 0 0 0 127 0" result="hardAlpha"/>
<feOffset dx="6" dy="6"/>
<feGaussianBlur stdDeviation="4"/>
<feComposite in2="hardAlpha" operator="out"/>
<feColorMatrix type="matrix" values="0 0 0 0 0.298039 0 0 0 0 0.631373 0 0 0 0 0.482353 0 0 0 0.4 0"/>
<feBlend mode="normal" in2="BackgroundImageFix" result="effect1_dropShadow_289_6085"/>
<feBlend mode="normal" in="SourceGraphic" in2="effect1_dropShadow_289_6085" result="shape"/>
<feColorMatrix in="SourceAlpha" type="matrix" values="0 0 0 0 0 0 0 0 0 0 0 0 0 0 0 0 0 0 127 0" result="hardAlpha"/>
<feOffset dx="-1" dy="-13"/>
<feGaussianBlur stdDeviation="4"/>
<feComposite in2="hardAlpha" operator="arithmetic" k2="-1" k3="1"/>
<feColorMatrix type="matrix" values="0 0 0 0 0.294118 0 0 0 0 0.647059 0 0 0 0 0.490196 0 0 0 1 0"/>
<feBlend mode="normal" in2="shape" result="effect2_innerShadow_289_6085"/>
<feColorMatrix in="SourceAlpha" type="matrix" values="0 0 0 0 0 0 0 0 0 0 0 0 0 0 0 0 0 0 127 0" result="hardAlpha"/>
<feOffset dx="-2" dy="5"/>
<feGaussianBlur stdDeviation="6.5"/>
<feComposite in2="hardAlpha" operator="arithmetic" k2="-1" k3="1"/>
<feColorMatrix type="matrix" values="0 0 0 0 0 0 0 0 0 0.316667 0 0 0 0 0.174921 0 0 0 1 0"/>
<feBlend mode="normal" in2="effect2_innerShadow_289_6085" result="effect3_innerShadow_289_6085"/>
</filter>
<filter id="filter3_dii_289_6085" x="52.6719" y="12.8773" width="28.375" height="29.0602" filterUnits="userSpaceOnUse" color-interpolation-filters="sRGB">
<feFlood flood-opacity="0" result="BackgroundImageFix"/>
<feColorMatrix in="SourceAlpha" type="matrix" values="0 0 0 0 0 0 0 0 0 0 0 0 0 0 0 0 0 0 127 0" result="hardAlpha"/>
<feOffset dx="6" dy="6"/>
<feGaussianBlur stdDeviation="4"/>
<feComposite in2="hardAlpha" operator="out"/>
<feColorMatrix type="matrix" values="0 0 0 0 0.298039 0 0 0 0 0.631373 0 0 0 0 0.482353 0 0 0 0.4 0"/>
<feBlend mode="normal" in2="BackgroundImageFix" result="effect1_dropShadow_289_6085"/>
<feBlend mode="normal" in="SourceGraphic" in2="effect1_dropShadow_289_6085" result="shape"/>
<feColorMatrix in="SourceAlpha" type="matrix" values="0 0 0 0 0 0 0 0 0 0 0 0 0 0 0 0 0 0 127 0" result="hardAlpha"/>
<feOffset dx="-1" dy="-13"/>
<feGaussianBlur stdDeviation="4"/>
<feComposite in2="hardAlpha" operator="arithmetic" k2="-1" k3="1"/>
<feColorMatrix type="matrix" values="0 0 0 0 0.294118 0 0 0 0 0.647059 0 0 0 0 0.490196 0 0 0 1 0"/>
<feBlend mode="normal" in2="shape" result="effect2_innerShadow_289_6085"/>
<feColorMatrix in="SourceAlpha" type="matrix" values="0 0 0 0 0 0 0 0 0 0 0 0 0 0 0 0 0 0 127 0" result="hardAlpha"/>
<feOffset dx="-2" dy="5"/>
<feGaussianBlur stdDeviation="6.5"/>
<feComposite in2="hardAlpha" operator="arithmetic" k2="-1" k3="1"/>
<feColorMatrix type="matrix" values="0 0 0 0 0 0 0 0 0 0.316667 0 0 0 0 0.174921 0 0 0 1 0"/>
<feBlend mode="normal" in2="effect2_innerShadow_289_6085" result="effect3_innerShadow_289_6085"/>
</filter>
</defs>
</svg>
