<svg width="67" height="62" viewBox="0 0 67 62" fill="none" xmlns="http://www.w3.org/2000/svg">
<g clip-path="url(#clip0_289_6118)">
<g filter="url(#filter0_dii_289_6118)">
<path d="M31.3776 5.87156C31.2995 6.03887 31.1753 6.18047 31.0197 6.27981C30.8641 6.37915 30.6834 6.43213 30.4987 6.43255C30.3146 6.42993 30.1348 6.37606 29.9795 6.27697C29.8243 6.17788 29.6997 6.0375 29.6198 5.87156C28.9149 4.28269 27.6211 3.02919 26.0108 2.37483C24.4004 1.72046 22.599 1.71624 20.9856 2.36306C19.3722 3.00988 18.0725 4.2573 17.3602 5.84286C16.6478 7.42842 16.5782 9.22848 17.166 10.8643C17.4326 11.6815 17.8584 12.4378 18.4189 13.0895C18.6441 13.3619 18.8945 13.6123 19.1669 13.8375L30.3865 25.0572L42.1111 13.4074C42.8097 12.7101 43.3461 11.8674 43.6818 10.9391C43.9528 10.209 44.0921 9.43657 44.0932 8.65778C44.0823 7.12686 43.55 5.64536 42.584 4.45767C41.6179 3.26998 40.2759 2.44705 38.7793 2.12463C37.2826 1.80222 35.7208 1.99957 34.3514 2.68414C32.9821 3.36871 31.8869 4.4996 31.2467 5.89026L31.3776 5.87156Z" fill="white" fill-opacity="0.3" shape-rendering="crispEdges"/>
</g>
<g filter="url(#filter1_dii_289_6118)">
<path d="M29.582 26.815C29.7039 26.9393 29.8494 27.0381 30.0099 27.1056C30.1705 27.173 30.3429 27.2077 30.517 27.2077C30.6913 27.2088 30.864 27.1745 31.0247 27.107C31.1854 27.0395 31.3307 26.9402 31.452 26.815L43.6066 14.7539C44.4064 13.9577 45.0399 13.0103 45.4701 11.967C45.9002 10.9236 46.1186 9.8051 46.1123 8.67656C46.1157 6.84913 45.5383 5.0679 44.4635 3.59C43.3886 2.1121 41.8719 1.01402 40.1324 0.454269C38.3928 -0.105479 36.5203 -0.097925 34.7853 0.47584C33.0503 1.0496 31.5425 2.15989 30.4796 3.64641C29.4039 2.209 27.9062 1.1433 26.1957 0.598079C24.4851 0.0528558 22.647 0.0553121 20.9379 0.605105C19.2288 1.1549 17.734 2.22459 16.6622 3.66488C15.5904 5.10516 14.9949 6.84417 14.9591 8.63916C14.9546 9.61376 15.1191 10.5818 15.4453 11.5002C15.8018 12.5159 16.3475 13.455 17.0534 14.2677C17.3286 14.5957 17.6287 14.9021 17.951 15.184L29.582 26.815ZM17.1656 10.8644C16.5778 9.22856 16.6474 7.4285 17.3597 5.84294C18.0721 4.25738 19.3717 3.00996 20.9851 2.36314C22.5986 1.71632 24.4 1.72054 26.0103 2.37491C27.6207 3.02927 28.9145 4.28277 29.6194 5.87164C29.6993 6.03758 29.8239 6.17796 29.9791 6.27705C30.1344 6.37614 30.3141 6.43001 30.4983 6.43263C30.6829 6.43221 30.8636 6.37923 31.0193 6.27989C31.1749 6.18055 31.299 6.03895 31.3772 5.87164C32.0174 4.48098 33.1125 3.35009 34.4819 2.66552C35.8513 1.98095 37.4131 1.7836 38.9097 2.10601C40.4064 2.42843 41.7484 3.25136 42.7144 4.43905C43.6805 5.62674 44.2128 7.10824 44.2237 8.63916C44.2226 9.41795 44.0833 10.1904 43.8123 10.9205C43.4761 11.8442 42.947 12.6856 42.2602 13.3888L30.5357 25.0385L19.316 13.8189C19.0437 13.5937 18.7933 13.3432 18.5681 13.0709C17.9561 12.4379 17.479 11.6872 17.1656 10.8644Z" fill="white"/>
</g>
<g filter="url(#filter2_dii_289_6118)">
<path d="M66.9813 40.1476C62.1382 40.1476 59.1836 37.1931 55.6308 34.7061C52.8589 32.5646 49.4656 31.3832 45.9632 31.3402C44.0932 31.3402 42.5038 31.3402 41.1387 31.3402H31.3215C30.9604 31.3096 30.5968 31.3543 30.2539 31.4715C29.9109 31.5887 29.5961 31.7758 29.3292 32.021C29.0623 32.2662 28.8493 32.5642 28.7035 32.896C28.5578 33.2278 28.4825 33.5863 28.4825 33.9487C28.4825 34.3112 28.5578 34.6696 28.7035 35.0015C28.8493 35.3333 29.0623 35.6312 29.3292 35.8764C29.5961 36.1217 29.9109 36.3088 30.2539 36.426C30.5968 36.5432 30.9604 36.5879 31.3215 36.5573H40.559C41.365 36.6856 42.1105 37.063 42.6911 37.6365C43.2716 38.21 43.6581 38.9509 43.7963 39.7552C43.9345 40.5594 43.8174 41.3868 43.4615 42.1212C43.1056 42.8556 42.5288 43.4601 41.8119 43.8501L38.2216 44.8785C37.0061 45.159 35.8468 45.4769 34.7622 45.7948H34.5378L25.319 48.207C24.837 48.235 24.3535 48.2036 23.8792 48.1135L9.34971 38.6516L6.71309 36.7817L6.3204 36.5573C6.09437 36.4384 5.85612 36.3444 5.60983 36.2768L5.10494 36.1646C4.9122 36.1452 4.718 36.1452 4.52526 36.1646C4.27631 36.1453 4.02623 36.1453 3.77728 36.1646C2.74076 36.2711 1.78064 36.7585 1.08283 37.5323C0.385023 38.3061 -0.000825935 39.3113 1.32749e-06 40.3533C0.00127129 40.9044 0.112768 41.4497 0.327929 41.9571C0.543091 42.4645 0.857571 42.9237 1.25286 43.3078C1.55448 43.6144 1.90133 43.873 2.28133 44.0745L3.2911 44.8037L26.1792 61.3527L26.4597 61.4649C26.9737 61.6276 27.5099 61.7096 28.0491 61.708C28.3827 61.7087 28.7152 61.671 29.0402 61.5958H29.1524C36.8752 59.6324 52.8445 55.5559 60.3243 53.7234L60.8666 53.5177C62.8711 52.9653 64.9258 52.6145 67 52.4705V51.4233V40.2037L66.9813 40.1476Z" fill="white"/>
</g>
</g>
<defs>
<filter id="filter0_dii_289_6118" x="14.7705" y="-6.11902" width="43.3223" height="45.1761" filterUnits="userSpaceOnUse" color-interpolation-filters="sRGB">
<feFlood flood-opacity="0" result="BackgroundImageFix"/>
<feColorMatrix in="SourceAlpha" type="matrix" values="0 0 0 0 0 0 0 0 0 0 0 0 0 0 0 0 0 0 127 0" result="hardAlpha"/>
<feOffset dx="6" dy="6"/>
<feGaussianBlur stdDeviation="4"/>
<feComposite in2="hardAlpha" operator="out"/>
<feColorMatrix type="matrix" values="0 0 0 0 0.298039 0 0 0 0 0.631373 0 0 0 0 0.482353 0 0 0 0.4 0"/>
<feBlend mode="normal" in2="BackgroundImageFix" result="effect1_dropShadow_289_6118"/>
<feBlend mode="normal" in="SourceGraphic" in2="effect1_dropShadow_289_6118" result="shape"/>
<feColorMatrix in="SourceAlpha" type="matrix" values="0 0 0 0 0 0 0 0 0 0 0 0 0 0 0 0 0 0 127 0" result="hardAlpha"/>
<feOffset dx="-1" dy="-13"/>
<feGaussianBlur stdDeviation="4"/>
<feComposite in2="hardAlpha" operator="arithmetic" k2="-1" k3="1"/>
<feColorMatrix type="matrix" values="0 0 0 0 0.294118 0 0 0 0 0.647059 0 0 0 0 0.490196 0 0 0 1 0"/>
<feBlend mode="normal" in2="shape" result="effect2_innerShadow_289_6118"/>
<feColorMatrix in="SourceAlpha" type="matrix" values="0 0 0 0 0 0 0 0 0 0 0 0 0 0 0 0 0 0 127 0" result="hardAlpha"/>
<feOffset dx="-2" dy="5"/>
<feGaussianBlur stdDeviation="6.5"/>
<feComposite in2="hardAlpha" operator="arithmetic" k2="-1" k3="1"/>
<feColorMatrix type="matrix" values="0 0 0 0 0 0 0 0 0 0.316667 0 0 0 0 0.174921 0 0 0 1 0"/>
<feBlend mode="normal" in2="effect2_innerShadow_289_6118" result="effect3_innerShadow_289_6118"/>
</filter>
<filter id="filter1_dii_289_6118" x="5.95898" y="-8.96008" width="55.1533" height="52.1677" filterUnits="userSpaceOnUse" color-interpolation-filters="sRGB">
<feFlood flood-opacity="0" result="BackgroundImageFix"/>
<feColorMatrix in="SourceAlpha" type="matrix" values="0 0 0 0 0 0 0 0 0 0 0 0 0 0 0 0 0 0 127 0" result="hardAlpha"/>
<feOffset dx="6" dy="6"/>
<feGaussianBlur stdDeviation="4"/>
<feComposite in2="hardAlpha" operator="out"/>
<feColorMatrix type="matrix" values="0 0 0 0 0.0235294 0 0 0 0 0.478431 0 0 0 0 0.27451 0 0 0 0.3 0"/>
<feBlend mode="normal" in2="BackgroundImageFix" result="effect1_dropShadow_289_6118"/>
<feBlend mode="normal" in="SourceGraphic" in2="effect1_dropShadow_289_6118" result="shape"/>
<feColorMatrix in="SourceAlpha" type="matrix" values="0 0 0 0 0 0 0 0 0 0 0 0 0 0 0 0 0 0 127 0" result="hardAlpha"/>
<feOffset dx="-10" dy="-11"/>
<feGaussianBlur stdDeviation="4.5"/>
<feComposite in2="hardAlpha" operator="arithmetic" k2="-1" k3="1"/>
<feColorMatrix type="matrix" values="0 0 0 0 0.0235294 0 0 0 0 0.478431 0 0 0 0 0.27451 0 0 0 0.5 0"/>
<feBlend mode="normal" in2="shape" result="effect2_innerShadow_289_6118"/>
<feColorMatrix in="SourceAlpha" type="matrix" values="0 0 0 0 0 0 0 0 0 0 0 0 0 0 0 0 0 0 127 0" result="hardAlpha"/>
<feOffset dx="15" dy="16"/>
<feGaussianBlur stdDeviation="9.5"/>
<feComposite in2="hardAlpha" operator="arithmetic" k2="-1" k3="1"/>
<feColorMatrix type="matrix" values="0 0 0 0 0.0235294 0 0 0 0 0.478431 0 0 0 0 0.27451 0 0 0 0.4 0"/>
<feBlend mode="normal" in2="effect2_innerShadow_289_6118" result="effect3_innerShadow_289_6118"/>
</filter>
<filter id="filter2_dii_289_6118" x="-9" y="22.3308" width="91" height="55.3772" filterUnits="userSpaceOnUse" color-interpolation-filters="sRGB">
<feFlood flood-opacity="0" result="BackgroundImageFix"/>
<feColorMatrix in="SourceAlpha" type="matrix" values="0 0 0 0 0 0 0 0 0 0 0 0 0 0 0 0 0 0 127 0" result="hardAlpha"/>
<feOffset dx="6" dy="6"/>
<feGaussianBlur stdDeviation="4"/>
<feComposite in2="hardAlpha" operator="out"/>
<feColorMatrix type="matrix" values="0 0 0 0 0.0235294 0 0 0 0 0.478431 0 0 0 0 0.27451 0 0 0 0.3 0"/>
<feBlend mode="normal" in2="BackgroundImageFix" result="effect1_dropShadow_289_6118"/>
<feBlend mode="normal" in="SourceGraphic" in2="effect1_dropShadow_289_6118" result="shape"/>
<feColorMatrix in="SourceAlpha" type="matrix" values="0 0 0 0 0 0 0 0 0 0 0 0 0 0 0 0 0 0 127 0" result="hardAlpha"/>
<feOffset dx="-10" dy="-11"/>
<feGaussianBlur stdDeviation="4.5"/>
<feComposite in2="hardAlpha" operator="arithmetic" k2="-1" k3="1"/>
<feColorMatrix type="matrix" values="0 0 0 0 0.0235294 0 0 0 0 0.478431 0 0 0 0 0.27451 0 0 0 0.5 0"/>
<feBlend mode="normal" in2="shape" result="effect2_innerShadow_289_6118"/>
<feColorMatrix in="SourceAlpha" type="matrix" values="0 0 0 0 0 0 0 0 0 0 0 0 0 0 0 0 0 0 127 0" result="hardAlpha"/>
<feOffset dx="15" dy="16"/>
<feGaussianBlur stdDeviation="9.5"/>
<feComposite in2="hardAlpha" operator="arithmetic" k2="-1" k3="1"/>
<feColorMatrix type="matrix" values="0 0 0 0 0.0235294 0 0 0 0 0.478431 0 0 0 0 0.27451 0 0 0 0.4 0"/>
<feBlend mode="normal" in2="effect2_innerShadow_289_6118" result="effect3_innerShadow_289_6118"/>
</filter>
<clipPath id="clip0_289_6118">
<rect width="67" height="61.7642" fill="white"/>
</clipPath>
</defs>
</svg>
