<svg width="13" height="13" viewBox="0 0 13 13" fill="none" xmlns="http://www.w3.org/2000/svg">
<g clip-path="url(#clip0_289_6003)">
<path d="M5.46929 1.0043C5.79359 0.00621469 7.20561 0.0062165 7.52992 1.0043L8.20217 3.07329C8.3472 3.51964 8.76315 3.82185 9.23247 3.82185H11.408C12.4574 3.82185 12.8938 5.16477 12.0448 5.78162L10.2847 7.06032C9.90503 7.33619 9.74615 7.82516 9.89117 8.27152L10.5634 10.3405C10.8878 11.3386 9.74538 12.1685 8.89635 11.5517L7.13636 10.273C6.75668 9.99714 6.24253 9.99715 5.86283 10.273L4.10285 11.5517C3.25383 12.1685 2.11147 11.3386 2.43578 10.3405L3.10803 8.27153C3.25306 7.82516 3.09418 7.33618 2.71448 7.06032L0.954502 5.78162C0.105478 5.16477 0.54182 3.82185 1.59127 3.82185H3.76673C4.23605 3.82185 4.65201 3.51964 4.79704 3.07329L5.46929 1.0043Z" fill="#89E18A"/>
</g>
<defs>
<clipPath id="clip0_289_6003">
<rect width="13" height="11.9167" fill="white"/>
</clipPath>
</defs>
</svg>
