<svg width="13" height="7" viewBox="0 0 13 7" fill="none" xmlns="http://www.w3.org/2000/svg">
<path d="M2.83999 0.540015C1.79999 1.02001 1.07999 2.06002 0.99999 3.26002C0.83999 5.58002 2.35999 7.10001 4.67999 6.94001C5.79999 6.86001 6.83999 6.22002 7.31999 5.18002C7.87999 4.06002 7.79999 2.70002 7.15999 1.66002C6.51999 0.780016 5.47999 0.220015 4.35999 0.140015C3.79999 0.140015 3.31999 0.300015 2.83999 0.540015Z" fill="white"/>
<path d="M9.00035 0.780105C8.28035 1.5001 8.04035 2.4601 8.12035 3.9001C8.28035 6.2201 9.48035 7.4201 10.6004 6.3001C11.2404 5.6601 11.4804 4.86011 11.4804 3.5801C11.4804 2.2201 11.0804 1.0201 10.4404 0.620104C9.88035 0.140104 9.64035 0.140105 9.00035 0.780105Z" fill="white"/>
<path d="M12.1997 1.09991C11.9597 1.57991 11.9597 5.33991 12.1997 5.97991C12.6797 7.09991 13.0797 5.97991 12.9997 3.41991C12.9997 1.49991 12.9197 0.859907 12.5997 0.779907C12.4397 0.779907 12.2797 0.859907 12.1997 1.09991Z" fill="white"/>
</svg>
