<svg width="20" height="16" viewBox="0 0 20 16" fill="none" xmlns="http://www.w3.org/2000/svg">
<path d="M6.50001 15.5C13.5 15.5 17.3 9.70002 17.3 4.70002C17.3 4.50002 17.3 4.40002 17.3 4.20002C18.1 3.70002 18.7 3.00001 19.2 2.20001C18.5 2.50001 17.7 2.70002 17 2.80001C17.8 2.30001 18.4 1.60001 18.7 0.700015C17.9 1.20001 17.2 1.50002 16.3 1.60002C14.8 0.100015 12.4 1.43647e-05 10.9 1.40001C9.90001 2.30001 9.50001 3.70001 9.80001 5.00001C6.70001 4.80001 3.90001 3.40002 2.00001 1.10002C1.00001 2.80002 1.50001 5.00002 3.20001 6.20002C2.60001 6.20002 2.00001 6.00002 1.50001 5.70002V5.80001C1.50001 7.60001 2.70001 9.20001 4.50001 9.50001C4.00001 9.70001 3.30001 9.70002 2.80001 9.60001C3.30001 11.1 4.70001 12.2 6.30001 12.2C5.00001 13.3 3.30001 13.8 1.60001 13.8C1.30001 13.8 1.00001 13.8 0.700012 13.7C2.40001 15 4.50001 15.6 6.50001 15.5Z" fill="white"/>
</svg>
