<svg width="17" height="16" viewBox="0 0 17 16" fill="none" xmlns="http://www.w3.org/2000/svg">
<g clip-path="url(#clip0_289_5639)">
<path d="M6.15009 1.6C5.97411 1.59446 5.8013 1.64766 5.65889 1.7512C5.48037 1.86195 5.32673 2.0085 5.20769 2.1816C4.86747 2.73779 4.70685 3.38529 4.74769 4.036C4.7498 4.44896 4.7792 4.86132 4.83569 5.2704C4.45248 5.35761 4.07583 5.47149 3.70849 5.6112C3.2147 5.78757 2.75732 6.05273 2.35889 6.3936C1.98733 6.70457 1.75429 7.15023 1.71089 7.6328C1.69186 8.0284 1.81565 8.41767 2.05969 8.7296C2.29598 9.00289 2.5741 9.237 2.88369 9.4232C3.01864 9.50882 3.18176 9.53818 3.3381 9.50498C3.49443 9.47178 3.63154 9.37866 3.72005 9.24559C3.80855 9.11251 3.84142 8.95007 3.81159 8.79305C3.78177 8.63604 3.69163 8.49696 3.56049 8.4056C3.35889 8.28485 3.17456 8.13738 3.01249 7.9672C2.97697 7.93286 2.95093 7.88991 2.93691 7.84253C2.92289 7.79515 2.92137 7.74495 2.93249 7.6968C2.94564 7.61686 2.97454 7.54033 3.01753 7.47166C3.06052 7.40299 3.11673 7.34355 3.18289 7.2968C3.47176 7.05893 3.79987 6.87322 4.15249 6.748C4.44979 6.63552 4.75418 6.54278 5.06369 6.4704C5.16609 6.89067 5.29169 7.31387 5.44049 7.74C4.66073 9.02108 4.21306 10.4765 4.13809 11.9744C4.09437 12.3288 4.14173 12.6886 4.27568 13.0196C4.40964 13.3507 4.62579 13.6421 4.90369 13.8664C5.27428 14.0956 5.71862 14.174 6.14529 14.0856C6.47979 14.0079 6.80528 13.8956 7.11649 13.7504C7.193 13.7215 7.26292 13.6775 7.3221 13.6211C7.38128 13.5646 7.42851 13.4968 7.46098 13.4218C7.49346 13.3467 7.51052 13.2659 7.51115 13.1841C7.51178 13.1023 7.49596 13.0212 7.46465 12.9457C7.43333 12.8701 7.38715 12.8016 7.32885 12.7443C7.27055 12.6869 7.20131 12.6419 7.12526 12.6118C7.04921 12.5817 6.96788 12.5672 6.88612 12.5692C6.80435 12.5711 6.72382 12.5895 6.64929 12.6232C6.41102 12.732 6.16436 12.8213 5.91169 12.8904C5.85504 12.9117 5.79399 12.9188 5.73397 12.9108C5.67395 12.9028 5.61683 12.8802 5.56769 12.8448C5.41174 12.5755 5.3396 12.2657 5.36049 11.9552C5.40815 11.0132 5.64771 10.0909 6.06449 9.2448C6.74148 10.7041 7.6725 12.0314 8.81409 13.1648C9.24815 13.597 9.75514 13.949 10.3117 14.2048C10.5551 14.3253 10.822 14.3908 11.0936 14.3966C11.3651 14.4024 11.6346 14.3484 11.8829 14.2384L11.9165 14.2216L11.9477 14.2C12.1568 14.0385 12.3278 13.8329 12.4485 13.5978C12.5692 13.3628 12.6366 13.1041 12.6461 12.84C12.6997 12.2799 12.6812 11.7153 12.5909 11.16C12.4163 10.0105 12.1269 8.88136 11.7269 7.7896C11.7015 7.7117 11.6607 7.6397 11.6069 7.57792C11.5531 7.51614 11.4874 7.46584 11.4137 7.43002C11.34 7.39421 11.2599 7.37361 11.1781 7.36947C11.0962 7.36533 11.0144 7.37772 10.9375 7.40591C10.8606 7.4341 10.7901 7.4775 10.7303 7.53353C10.6706 7.58956 10.6227 7.65707 10.5896 7.73201C10.5565 7.80696 10.5388 7.8878 10.5377 7.96972C10.5365 8.05164 10.5519 8.13296 10.5829 8.2088C10.9495 9.22059 11.2174 10.2655 11.3829 11.3288C11.4549 11.7784 11.4727 12.235 11.4357 12.6888C11.4321 12.8529 11.376 13.0116 11.2757 13.1416C11.1938 13.1652 11.1079 13.1717 11.0234 13.1607C10.9389 13.1497 10.8576 13.1214 10.7845 13.0776C10.3628 12.8748 9.9782 12.6025 9.64689 12.272C8.60058 11.2222 7.74777 9.99588 7.12769 8.6496C7.00049 8.3824 6.88769 8.1112 6.77969 7.8384C6.92609 7.5832 7.08449 7.324 7.25969 7.0584C7.46129 6.7488 7.66929 6.4512 7.88049 6.1688C8.16049 6.1688 8.44769 6.17627 8.74209 6.1912C10.2195 6.24742 11.6765 6.55558 13.0501 7.1024C13.4803 7.27548 13.8788 7.51879 14.2293 7.8224C14.4693 8.0512 14.5141 8.2072 14.5093 8.2968C14.4989 8.508 14.2733 8.7768 13.7277 8.9368C13.6507 8.95934 13.579 8.99681 13.5165 9.04708C13.454 9.09735 13.4021 9.15943 13.3636 9.22978C13.3251 9.30013 13.3009 9.37737 13.2922 9.45709C13.2836 9.53681 13.2908 9.61745 13.3133 9.6944C13.3358 9.77136 13.3733 9.84312 13.4236 9.90559C13.4738 9.96807 13.5359 10.02 13.6063 10.0585C13.6766 10.097 13.7539 10.1212 13.8336 10.1299C13.9133 10.1385 13.9939 10.1313 14.0709 10.1088C14.4944 10.0267 14.8817 9.8146 15.179 9.50201C15.4762 9.18941 15.6686 8.79188 15.7293 8.3648C15.729 8.09485 15.6703 7.82816 15.5572 7.58304C15.4441 7.33792 15.2793 7.12019 15.0741 6.9448C14.6222 6.53702 14.102 6.21205 13.5373 5.9848C12.0526 5.38384 10.4753 5.04339 8.87489 4.9784C9.14287 4.68768 9.42677 4.41206 9.72529 4.1528C10.2526 3.63493 10.9125 3.27256 11.6325 3.1056C11.7172 3.09572 11.8029 3.11369 11.8765 3.1568C11.9226 3.18069 11.9609 3.21708 11.9873 3.2618C12.0136 3.30651 12.0268 3.35774 12.0253 3.4096C12.0274 3.63254 11.964 3.85119 11.8429 4.0384C11.7995 4.10799 11.7706 4.18562 11.7579 4.26663C11.7452 4.34765 11.749 4.4304 11.7691 4.50991C11.7891 4.58943 11.825 4.66409 11.8746 4.72941C11.9241 4.79474 11.9864 4.84939 12.0576 4.8901C12.1288 4.93081 12.2074 4.95674 12.2889 4.96633C12.3703 4.97593 12.4528 4.96899 12.5315 4.94594C12.6102 4.92289 12.6835 4.88419 12.7469 4.83218C12.8103 4.78016 12.8625 4.71588 12.9005 4.6432C13.152 4.23845 13.2703 3.76508 13.2389 3.2896C13.2152 3.05727 13.1402 2.83311 13.0193 2.63332C12.8984 2.43354 12.7345 2.26312 12.5397 2.1344C12.2546 1.95554 11.9214 1.86894 11.5853 1.8864C10.5737 2.02559 9.63773 2.49895 8.92609 3.2312C8.3251 3.75752 7.77249 4.33663 7.27489 4.9616C6.84849 4.9768 6.43489 5.0096 6.04049 5.0584C5.99406 4.71954 5.96974 4.37802 5.96769 4.036C5.93274 3.6365 6.01621 3.23556 6.20769 2.8832C6.21848 2.86638 6.23232 2.85173 6.24849 2.84C6.60849 2.8616 6.74129 2.976 7.09889 3.2808C7.15941 3.33597 7.23041 3.3784 7.30766 3.40556C7.38491 3.43272 7.46683 3.44406 7.54856 3.4389C7.63028 3.43375 7.71013 3.4122 7.78336 3.37554C7.85658 3.33889 7.92168 3.28787 7.97478 3.22554C8.02788 3.1632 8.0679 3.09082 8.09245 3.0127C8.117 2.93458 8.12557 2.85232 8.11767 2.77081C8.10977 2.68931 8.08555 2.61023 8.04645 2.53828C8.00736 2.46632 7.95418 2.40298 7.89009 2.352C7.42571 1.89084 6.80418 1.62223 6.15009 1.6ZM6.33009 6.2568C6.31729 6.2768 6.30289 6.2984 6.28849 6.3184C6.28369 6.3008 6.27649 6.28 6.27329 6.2616L6.33009 6.2568ZM8.71249 7.0856C8.53148 7.0856 8.35454 7.13928 8.20404 7.23984C8.05353 7.3404 7.93623 7.48334 7.86696 7.65057C7.79769 7.8178 7.77957 8.00182 7.81488 8.17935C7.85019 8.35688 7.93736 8.51995 8.06535 8.64795C8.19334 8.77594 8.35642 8.8631 8.53395 8.89842C8.71148 8.93373 8.89549 8.91561 9.06273 8.84634C9.22996 8.77707 9.37289 8.65976 9.47345 8.50926C9.57402 8.35876 9.62769 8.18181 9.62769 8.0008C9.62769 7.75808 9.53127 7.52529 9.35964 7.35366C9.188 7.18202 8.95522 7.0856 8.71249 7.0856Z" fill="black"/>
</g>
<defs>
<clipPath id="clip0_289_5639">
<rect width="16" height="16" fill="white" transform="translate(0.71875)"/>
</clipPath>
</defs>
</svg>
