<svg width="948" height="767" viewBox="0 0 948 767" fill="none" xmlns="http://www.w3.org/2000/svg">
<path d="M283.28 653.638C270.843 653.638 258.768 649.653 248.867 642.167L65.2136 502.466C22.7112 469.866 -0.713402 421.93 1.09778 370.735C2.90896 319.539 29.2314 273.053 73.7865 243.109L415.617 13.5745C440.611 -2.96741 472.85 -3.20889 498.086 12.9708C522.838 29.0297 534.068 58.129 526.099 85.2964L425.638 430.141C417.79 457.308 387.724 473.367 358.745 465.881C329.767 458.395 312.5 430.503 320.469 403.336L393.037 154.241L137.419 325.818C120.756 337.047 110.735 354.555 110.01 373.874C109.406 393.193 118.221 411.305 134.159 423.5L317.692 563.201C340.996 580.95 344.498 613.068 325.541 634.922C314.794 646.997 299.339 653.879 283.28 653.638Z" stroke="white" stroke-opacity="0.37" stroke-width="1.20745"/>
<path d="M490.842 766.171C476.473 766.171 462.225 762.066 450.151 754.217C425.398 738.158 414.169 709.059 422.138 681.892L522.598 337.047C530.446 309.88 560.512 293.821 589.491 301.307C618.59 308.672 635.736 336.685 627.767 363.852L555.199 612.947L810.817 441.128C827.601 429.899 837.502 412.271 838.226 393.072C838.83 373.753 830.015 355.642 814.077 343.447L630.544 203.746C607.24 185.997 603.739 153.879 622.696 132.024C641.773 110.17 676.065 106.909 699.369 124.78L883.023 264.601C925.525 297.202 948.95 345.137 947.138 396.332C945.448 447.528 919.005 494.014 874.45 523.959L532.74 753.613C520.304 761.824 505.814 766.171 490.842 766.171Z" stroke="white" stroke-opacity="0.37" stroke-width="1.20745"/>
</svg>
