<svg width="1920" height="706" viewBox="0 0 1920 706" fill="none" xmlns="http://www.w3.org/2000/svg">
<g opacity="0.1" clip-path="url(#clip0_228_10853)">
<path d="M276.704 141.07C283.799 165.39 291.653 192.817 300.23 223.35C308.825 253.9 317.985 285.474 327.763 318.089C337.522 350.704 347.441 383.319 357.501 415.935C367.561 448.55 377.338 478.8 386.816 506.668C394.564 476.418 402.453 443.52 410.501 407.94C418.531 372.359 426.138 335.597 433.286 297.634C440.433 259.689 447.44 221.885 454.288 184.222C461.136 146.577 467.542 110.255 473.507 75.2573H617.646C596.768 178.433 572.747 283.109 545.603 389.249C518.459 495.408 489.074 596.219 457.465 691.682H330.551C309.831 634.746 289.711 575.022 270.174 512.439C250.637 449.874 231.399 387.167 212.462 324.301C193.454 387.167 174.464 449.874 155.456 512.439C136.448 575.004 116.575 634.746 95.785 691.682H-31.0402C-62.6142 596.219 -91.9467 495.408 -119.038 389.249C-146.111 283.109 -170.078 178.433 -190.922 75.2573H-40.5883C-34.6406 110.255 -28.0752 146.577 -20.9274 184.222C-13.7796 221.885 -6.33172 259.689 1.41616 297.634C9.16404 335.597 17.0531 372.359 25.101 407.94C33.1489 443.52 41.3557 476.435 49.686 506.668C60.3813 477.618 70.7765 446.785 80.8717 414.152C90.9668 381.555 100.78 348.922 110.275 316.306C119.788 283.709 128.541 252.258 136.554 222.026C144.567 191.776 151.856 164.808 158.386 141.088H276.669L276.704 141.07Z" stroke="#DDDDDD" stroke-width="1.76489"/>
<path d="M645.231 461.292C645.231 419.8 651.603 383.461 664.363 352.328C677.105 321.195 693.854 295.269 714.627 274.496C735.382 253.741 759.244 238.033 786.229 227.356C813.214 216.678 840.94 211.348 869.391 211.348C935.803 211.348 988.274 231.662 1026.84 272.272C1065.38 312.9 1084.65 372.642 1084.65 451.515C1084.65 459.227 1084.35 467.681 1083.77 476.859C1083.17 486.054 1082.57 494.208 1081.99 501.32H781.34C784.305 528.605 797.048 550.243 819.585 566.25C842.123 582.258 872.356 590.271 910.318 590.271C934.621 590.271 958.482 588.047 981.92 583.599C1005.34 579.152 1024.47 573.681 1039.3 567.151L1057.09 674.774C1049.97 678.339 1040.48 681.886 1028.62 685.451C1016.74 689.016 1003.56 692.123 989.033 694.788C974.49 697.453 958.923 699.676 942.333 701.459C925.726 703.242 909.118 704.124 892.528 704.124C850.418 704.124 813.814 697.894 782.681 685.451C751.549 672.991 725.746 655.96 705.291 634.305C684.836 612.667 669.71 587.023 659.933 557.355C650.155 527.705 645.249 495.69 645.249 461.292H645.231ZM956.559 410.587C955.959 399.327 954.035 388.349 950.77 377.672C947.505 366.994 942.457 357.517 935.645 349.204C928.814 340.909 920.219 334.079 909.842 328.749C899.464 323.419 886.563 320.736 871.155 320.736C855.748 320.736 843.588 323.26 832.91 328.29C822.233 333.338 813.337 340.009 806.225 348.304C799.112 356.617 793.624 366.253 789.776 377.213C785.911 388.19 783.105 399.309 781.322 410.569H956.559V410.587Z" stroke="#DDDDDD" stroke-width="1.76489"/>
<path d="M1621.91 457.745C1621.91 495.108 1616.42 528.906 1605.46 559.156C1594.48 589.406 1578.61 615.191 1557.87 636.547C1537.1 657.902 1511.62 674.351 1481.38 685.911C1451.13 697.471 1416.74 703.26 1378.21 703.26C1362.2 703.26 1345.43 702.518 1327.94 701.036C1310.44 699.553 1293.25 697.612 1276.36 695.247C1259.45 692.864 1243.3 690.058 1227.88 686.793C1212.45 683.546 1198.81 680.122 1186.96 676.557V22.7697L1319.47 1.43213V234.486C1334.28 227.974 1349.72 222.926 1365.73 219.361C1381.74 215.796 1398.93 214.031 1417.32 214.031C1450.52 214.031 1479.88 219.82 1505.39 231.38C1530.87 242.94 1552.23 259.407 1569.43 280.744C1586.62 302.099 1599.69 327.743 1608.58 357.693C1617.48 387.644 1621.92 421 1621.92 457.763L1621.91 457.745ZM1486.7 454.18C1486.7 368.795 1455.26 326.084 1392.42 326.084C1378.77 326.084 1365.29 327.867 1351.95 331.414C1338.6 334.979 1327.77 339.427 1319.47 344.757V585.806C1325.99 587.006 1334.28 588.03 1344.38 588.912C1354.45 589.795 1365.41 590.253 1377.29 590.253C1413.45 590.253 1440.74 577.793 1459.13 552.891C1477.5 527.988 1486.7 495.073 1486.7 454.162V454.18Z" stroke="#DDDDDD" stroke-width="1.76489" stroke-dasharray="1764.89 1764.89"/>
<path d="M1864.72 705.024C1848.71 705.024 1831.8 703.983 1814.01 701.918C1796.22 699.835 1779.02 697.029 1762.43 693.464C1745.82 689.899 1730.69 686.051 1717.07 681.904C1703.43 677.756 1692.75 673.891 1685.05 670.344L1710.86 560.038C1726.26 566.568 1746 573.539 1770.02 580.934C1794.04 588.365 1823.83 592.053 1859.41 592.053C1900.32 592.053 1930.27 584.358 1949.24 568.933C1968.21 553.526 1977.71 532.77 1977.71 506.668C1977.71 490.66 1974.28 477.176 1967.47 466.199C1960.64 455.239 1951.31 446.344 1939.45 439.513C1927.57 432.701 1913.5 427.953 1897.19 425.288C1880.87 422.623 1863.54 421.282 1845.16 421.282H1793.58V314.541H1852.28C1865.32 314.541 1877.92 313.359 1890.08 310.976C1902.22 308.611 1913.06 304.605 1922.56 298.975C1932.03 293.345 1939.6 285.632 1945.23 275.855C1950.86 266.077 1953.69 253.776 1953.69 238.933C1953.69 227.673 1951.31 217.896 1946.58 209.583C1941.83 201.288 1935.76 194.458 1928.34 189.128C1920.91 183.798 1912.34 179.792 1902.54 177.127C1892.76 174.462 1882.83 173.121 1872.75 173.121C1847.25 173.121 1823.67 176.986 1802.03 184.681C1780.38 192.393 1760.66 201.888 1742.87 213.148L1695.73 116.185C1705.21 110.273 1716.33 104.043 1729.09 97.5125C1741.83 91 1755.91 85.0524 1771.34 79.7224C1786.75 74.3924 1803.21 69.9449 1820.7 66.3798C1838.19 62.8147 1856.72 61.0498 1876.3 61.0498C1912.46 61.0498 1943.75 65.3385 1970.14 73.9335C1996.52 82.5286 2018.3 94.6534 2035.51 110.343C2052.7 126.033 2065.44 144.388 2073.75 165.408C2082.05 186.428 2086.21 209.371 2086.21 234.239C2086.21 259.106 2079.38 282.067 2065.76 304.852C2052.12 327.655 2033.74 344.968 2010.61 356.811C2042.62 369.871 2067.38 389.338 2084.87 415.158C2102.36 440.978 2111.12 472.005 2111.12 508.221C2111.12 536.724 2106.37 563.003 2096.89 587.041C2087.4 611.079 2072.57 631.869 2052.42 649.395C2032.24 666.902 2006.6 680.563 1975.47 690.375C1944.33 700.153 1907.41 705.059 1864.72 705.059V705.024Z" stroke="#DDDDDD" stroke-width="1.76489" stroke-dasharray="1764.89 1764.89"/>
</g>
<defs>
<clipPath id="clip0_228_10853">
<rect width="1920" height="706" fill="white"/>
</clipPath>
</defs>
</svg>
