<svg width="26" height="21" viewBox="0 0 26 21" fill="none" xmlns="http://www.w3.org/2000/svg">
<path d="M12.1985 20.5637C11.8764 20.3629 11.6282 20.063 11.4911 19.7091C11.3541 19.3551 11.3356 18.9662 11.4386 18.6009L14.1652 9.23703C14.2854 8.87302 14.5409 8.56917 14.879 8.38843C15.217 8.20769 15.6116 8.1639 15.981 8.26614C16.1633 8.30521 16.3356 8.38092 16.4877 8.48868C16.6398 8.59643 16.7683 8.73398 16.8656 8.89297C16.9629 9.05195 17.0268 9.22905 17.0535 9.4135C17.0802 9.59795 17.0691 9.7859 17.0209 9.96594L15.0491 16.7261L21.9923 12.0587C22.213 11.9183 22.3962 11.7261 22.5258 11.4989C22.6554 11.2717 22.7277 11.0163 22.7362 10.7548C22.7448 10.4934 22.6895 10.2338 22.575 9.99853C22.4605 9.76331 22.2903 9.55958 22.0793 9.40501L17.0959 5.61145C16.9469 5.50296 16.8223 5.36455 16.73 5.20509C16.6376 5.04563 16.5796 4.86863 16.5596 4.68544C16.5397 4.50225 16.5582 4.31692 16.6141 4.14131C16.6699 3.96571 16.7618 3.8037 16.8839 3.66568C17.1436 3.37858 17.5012 3.19889 17.8865 3.16189C18.2719 3.12489 18.6571 3.23325 18.9667 3.46571L23.9521 7.26526C24.5118 7.6753 24.9631 8.2157 25.2667 8.83959C25.5704 9.46349 25.7172 10.152 25.6946 10.8455C25.6719 11.539 25.4804 12.2165 25.1367 12.8193C24.793 13.422 24.3074 13.9318 23.7221 14.3044L14.4382 20.5437C14.1064 20.7629 13.7182 20.8812 13.3205 20.8844C12.9228 20.8876 12.5328 20.7755 12.1975 20.5617L12.1985 20.5637ZM6.73112 17.523L1.74571 13.7235C1.18597 13.3133 0.73472 12.7729 0.431086 12.1489C0.127451 11.5249 -0.0194042 10.8363 0.00325135 10.1427C0.0259069 9.44918 0.21739 8.77162 0.561098 8.16879C0.904806 7.56597 1.39037 7.05608 1.97568 6.68333L11.2606 0.451065C11.5923 0.231625 11.9806 0.113124 12.3783 0.10993C12.776 0.106735 13.1661 0.218983 13.5013 0.433067C13.8234 0.633844 14.0716 0.933748 14.2087 1.28769C14.3457 1.64164 14.3641 2.03051 14.2612 2.39583L11.5345 11.7587C11.4132 12.1221 11.1573 12.4253 10.8195 12.606C10.4816 12.7867 10.0874 12.8313 9.71776 12.7306C9.5356 12.6914 9.3633 12.6156 9.21131 12.5078C9.05932 12.4 8.9308 12.2625 8.83357 12.1036C8.73633 11.9446 8.67239 11.7676 8.64563 11.5832C8.61887 11.3988 8.62984 11.2108 8.67789 11.0308L10.6497 4.27161L3.70347 8.93106C3.48444 9.07358 3.30277 9.26654 3.17368 9.49374C3.0446 9.72095 2.97186 9.97579 2.96156 10.2369C2.95424 10.4978 3.01017 10.7565 3.12457 10.991C3.23896 11.2256 3.40843 11.4289 3.61848 11.5837L8.60089 15.3773C8.7501 15.4856 8.87498 15.6239 8.9675 15.7834C9.06003 15.9429 9.11814 16.1199 9.13811 16.3032C9.15807 16.4865 9.13945 16.6719 9.08344 16.8476C9.02742 17.0232 8.93526 17.1852 8.81287 17.3231C8.66897 17.485 8.4921 17.6143 8.29412 17.7023C8.09614 17.7902 7.88164 17.8348 7.66501 17.833C7.3282 17.8345 7.00017 17.7257 6.73112 17.523Z" fill="url(#paint0_linear_228_10885)"/>
<defs>
<linearGradient id="paint0_linear_228_10885" x1="12.8489" y1="0.109863" x2="12.8489" y2="20.8845" gradientUnits="userSpaceOnUse">
<stop stop-color="#B8F081"/>
<stop offset="1" stop-color="#64F9C8"/>
</linearGradient>
</defs>
</svg>
