<svg width="17" height="16" viewBox="0 0 17 16" fill="none" xmlns="http://www.w3.org/2000/svg">
<g clip-path="url(#clip0_289_5631)">
<path d="M3.25681 2.3999C2.88366 2.40011 2.52586 2.54844 2.262 2.8123C1.99815 3.07615 1.84982 3.43395 1.84961 3.8071L1.84961 12.6871C1.84965 12.9509 1.92383 13.2093 2.06367 13.4329C2.20351 13.6566 2.4034 13.8364 2.64052 13.9519C2.87764 14.0675 3.14245 14.114 3.40476 14.0863C3.66706 14.0585 3.91628 13.9576 4.12401 13.7951L5.99121 12.3335H13.2416C13.4266 12.3335 13.6097 12.2971 13.7806 12.2262C13.9515 12.1554 14.1067 12.0517 14.2375 11.9208C14.3683 11.79 14.4719 11.6347 14.5427 11.4638C14.6134 11.2928 14.6497 11.1097 14.6496 10.9247V3.8047C14.6488 3.43197 14.5002 3.07478 14.2364 2.81145C13.9726 2.54811 13.6151 2.40011 13.2424 2.3999H3.25681Z" fill="white"/>
</g>
<defs>
<clipPath id="clip0_289_5631">
<rect width="16" height="16" fill="white" transform="translate(0.25)"/>
</clipPath>
</defs>
</svg>
