<svg width="14" height="13" viewBox="0 0 14 13" fill="none" xmlns="http://www.w3.org/2000/svg">
<path d="M2.00681 0.399902C1.63366 0.400114 1.27586 0.548441 1.012 0.812296C0.748148 1.07615 0.599821 1.43395 0.599609 1.8071L0.599609 10.6871C0.599653 10.9509 0.673826 11.2093 0.813669 11.4329C0.953513 11.6566 1.1534 11.8364 1.39052 11.9519C1.62764 12.0675 1.89245 12.114 2.15476 12.0863C2.41706 12.0585 2.66628 11.9576 2.87401 11.7951L4.74121 10.3335H11.9916C12.1766 10.3335 12.3597 10.2971 12.5306 10.2262C12.7015 10.1554 12.8567 10.0517 12.9875 9.92083C13.1183 9.79 13.2219 9.63469 13.2927 9.46377C13.3634 9.29285 13.3997 9.10967 13.3996 8.9247V1.8047C13.3988 1.43197 13.2502 1.07478 12.9864 0.811446C12.7226 0.54811 12.3651 0.400113 11.9924 0.399902L2.00681 0.399902Z" fill="#11161F"/>
</svg>
