<svg width="21" height="21" viewBox="0 0 21 21" fill="none" xmlns="http://www.w3.org/2000/svg">
<mask id="mask0_289_5965" style="mask-type:luminance" maskUnits="userSpaceOnUse" x="0" y="0" width="21" height="21">
<path d="M21 0H0V21H21V0Z" fill="white"/>
</mask>
<g mask="url(#mask0_289_5965)">
<path d="M16.4804 0.262497H4.51961C3.92592 0.262239 3.338 0.378951 2.78943 0.605966C2.24086 0.832981 1.74239 1.16585 1.3225 1.58556C0.90261 2.00527 0.569523 2.50359 0.342269 3.05206C0.115015 3.60053 -0.00195318 4.1884 -0.00195312 4.78209V16.2186C-0.00186699 16.8122 0.115165 17.4 0.342457 17.9484C0.56975 18.4968 0.90285 18.995 1.32273 19.4147C1.74262 19.8343 2.24106 20.1671 2.78958 20.3941C3.33811 20.6211 3.92598 20.7378 4.51961 20.7375H16.4804C17.6786 20.737 18.8276 20.2607 19.6748 19.4133C20.5219 18.5659 20.9979 17.4168 20.998 16.2186V4.78209C20.998 4.18857 20.8811 3.60086 20.654 3.05252C20.4269 2.50417 20.094 2.00594 19.6743 1.58626C19.2546 1.16657 18.7564 0.833662 18.208 0.606531C17.6597 0.3794 17.072 0.262497 16.4785 0.262497H16.4804ZM11.1379 14.6921H9.13698C8.9972 14.6921 8.89745 14.6869 8.84102 14.593C8.65289 14.2264 8.46498 13.8624 8.2773 13.501C8.08348 13.1292 7.88398 12.7606 7.6788 12.3952C7.4653 12.0168 7.25617 11.6362 7.05142 11.2534H7.03764C6.8482 11.6318 6.6533 12.0074 6.45292 12.3802C6.25255 12.7529 6.05305 13.1257 5.85442 13.4984C5.65755 13.8698 5.45608 14.2384 5.25002 14.6042C5.2113 14.6888 5.14567 14.698 5.05314 14.698H3.1218C3.08439 14.698 3.06339 14.7131 3.05617 14.6751C3.05103 14.6406 3.05849 14.6054 3.07717 14.576L5.79602 10.1089L3.14805 5.63325C3.11917 5.59584 3.11458 5.56762 3.13427 5.5394C3.14461 5.52731 3.15768 5.51785 3.1724 5.51181C3.18712 5.50576 3.20306 5.5033 3.21892 5.50462H5.20736C5.25057 5.50287 5.29368 5.51002 5.33402 5.52562C5.36758 5.54495 5.3963 5.57165 5.41802 5.60372C5.58689 5.97997 5.7748 6.35556 5.98173 6.7305C6.18867 7.10543 6.39758 7.47731 6.60845 7.84612C6.81933 8.21275 7.01423 8.58462 7.19317 8.96175H7.20695C7.39333 8.57675 7.58342 8.20115 7.77723 7.83497C7.97105 7.46878 8.16792 7.10018 8.36786 6.72918C8.56998 6.35731 8.76489 5.98872 8.95258 5.6234C8.963 5.58832 8.9822 5.55647 9.00836 5.53087C9.0433 5.51352 9.08239 5.50625 9.12123 5.50987H10.9666C10.9845 5.5052 11.0034 5.5068 11.0203 5.51442C11.0371 5.52204 11.0508 5.53522 11.0591 5.55174C11.0674 5.56826 11.0698 5.58712 11.0659 5.60519C11.0619 5.62325 11.0519 5.63941 11.0375 5.65097V5.65425L8.41708 9.97959L11.2206 14.5733C11.2385 14.6055 11.2434 14.6433 11.2344 14.679C11.2271 14.7039 11.195 14.6797 11.1379 14.6921ZM17.8585 14.3246C17.4006 14.5154 16.9237 14.6571 16.4358 14.7472C15.9892 14.8301 15.5361 14.8725 15.082 14.8739C14.4338 14.8834 13.7917 14.7489 13.2018 14.4802C12.6521 14.2256 12.1927 13.8103 11.884 13.2891C11.5449 12.6811 11.379 11.9917 11.4043 11.296C11.3991 10.6494 11.5646 10.0129 11.884 9.45065C12.2131 8.87786 12.6969 8.40934 13.2799 8.09878C14.0165 7.7138 14.8454 7.54048 15.6745 7.59806C15.7498 7.60243 15.839 7.60943 15.9423 7.61906V4.84443C15.9423 4.77881 15.9705 4.74534 16.027 4.74534H17.7988C17.8087 4.74405 17.8187 4.74473 17.8283 4.74734C17.8379 4.74995 17.8469 4.75443 17.8548 4.76053C17.8627 4.76663 17.8693 4.77423 17.8742 4.78288C17.8791 4.79154 17.8823 4.80108 17.8835 4.81097C17.8844 4.81794 17.8844 4.82499 17.8835 4.83197V13.1578C17.8835 13.3179 17.8907 13.4912 17.9045 13.6795C17.9183 13.8679 17.9307 14.0359 17.9393 14.1862C17.9411 14.2151 17.9341 14.244 17.9191 14.2689C17.904 14.2937 17.8818 14.3134 17.8553 14.3253L17.8585 14.3246ZM15.7087 9.23934C15.7873 9.24715 15.8652 9.26119 15.9416 9.28134V13.127C15.8408 13.1569 15.7369 13.1756 15.6319 13.1827C15.5098 13.1928 15.3875 13.1974 15.265 13.1965C15.0184 13.1977 14.7732 13.1596 14.5386 13.0837C14.3171 13.0137 14.1149 12.8933 13.948 12.7319C13.7738 12.556 13.6395 12.3447 13.5542 12.1124C13.4494 11.8234 13.3993 11.5174 13.4065 11.2101C13.3818 10.8472 13.4667 10.4854 13.6502 10.1714C13.8337 9.85742 14.1073 9.60585 14.4355 9.44934C14.7414 9.29791 15.0786 9.22058 15.4199 9.22359C15.5164 9.22556 15.6129 9.23278 15.7087 9.23934Z" fill="#FF2BC2"/>
</g>
</svg>
