<svg width="17" height="25" viewBox="0 0 17 25" fill="none" xmlns="http://www.w3.org/2000/svg">
<path d="M12.3977 9.08787H7.75552V0H12.3977C13.6029 0 14.7586 0.478735 15.6108 1.33089C16.4629 2.18304 16.9417 3.33881 16.9417 4.54393C16.9417 5.74906 16.4629 6.90483 15.6108 7.75698C14.7586 8.60913 13.6029 9.08787 12.3977 9.08787ZM9.24373 7.59966H12.3977C13.208 7.59966 13.985 7.2778 14.5579 6.70488C15.1308 6.13196 15.4527 5.35492 15.4527 4.54469C15.4527 3.73446 15.1308 2.95742 14.5579 2.38451C13.985 1.81159 13.208 1.48973 12.3977 1.48973H9.24373V7.59966ZM9.24373 9.08787H4.60227C3.39715 9.08787 2.24138 8.60913 1.38923 7.75698C0.537074 6.90483 0.0583398 5.74906 0.0583398 4.54393C0.0583398 3.33881 0.537074 2.18304 1.38923 1.33089C2.24138 0.478735 3.39715 0 4.60227 0H9.24448L9.24373 9.08787ZM4.60227 1.48897C3.79195 1.48897 3.01481 1.81087 2.44182 2.38386C1.86883 2.95685 1.54693 3.73398 1.54693 4.54431C1.54693 5.35464 1.86883 6.13178 2.44182 6.70477C3.01481 7.27776 3.79195 7.59966 4.60227 7.59966H7.75627V1.48897H4.60227ZM9.24373 16.686H4.60227C4.00071 16.6938 3.4036 16.582 2.84558 16.3572C2.28756 16.1324 1.77975 15.7989 1.3516 15.3763C0.923462 14.9537 0.583517 14.4502 0.351497 13.8951C0.119476 13.3401 0 12.7444 0 12.1428C0 11.5412 0.119476 10.9456 0.351497 10.3905C0.583517 9.83547 0.923462 9.332 1.3516 8.90936C1.77975 8.48672 2.28756 8.15331 2.84558 7.92848C3.4036 7.70365 4.00071 7.59188 4.60227 7.59966H9.24373V16.686ZM4.60227 9.08787C3.79205 9.08787 3.015 9.40973 2.44209 9.98265C1.86917 10.5556 1.54731 11.3326 1.54731 12.1428C1.54731 12.9531 1.86917 13.7301 2.44209 14.303C3.015 14.8759 3.79205 15.1978 4.60227 15.1978H7.75627L7.75552 9.08787H4.60227ZM4.62656 24.2849C4.02517 24.2943 3.42789 24.1842 2.86937 23.961C2.31086 23.7378 1.80222 23.4059 1.37295 22.9846C0.943687 22.5633 0.602343 22.061 0.368716 21.5068C0.135088 20.9525 0.0138287 20.3574 0.01197 19.7559C0.0101114 19.1545 0.12769 18.5586 0.357888 18.003C0.588085 17.4473 0.926318 16.9429 1.35297 16.5189C1.77962 16.095 2.2862 15.76 2.84333 15.5333C3.40046 15.3066 3.99704 15.1929 4.59848 15.1986H9.24069V19.692C9.23607 20.9124 8.74778 22.0811 7.88285 22.9421C7.01793 23.803 5.84693 24.2859 4.62656 24.2849ZM4.60227 16.686C3.79205 16.6893 3.01632 17.0144 2.44575 17.5896C1.87519 18.1649 1.55651 18.9433 1.55983 19.7535C1.56315 20.5637 1.8882 21.3394 2.46346 21.91C3.03873 22.4806 3.81709 22.7993 4.62732 22.7959C5.45378 22.7984 6.24745 22.4728 6.83419 21.8908C7.42093 21.3087 7.75282 20.5177 7.75703 19.6913V16.686H4.60227ZM12.3977 16.686H12.2983C11.6968 16.6938 11.0996 16.582 10.5416 16.3572C9.9836 16.1324 9.47578 15.7989 9.04764 15.3763C8.6195 14.9537 8.27956 14.4502 8.04753 13.8951C7.81551 13.3401 7.69604 12.7444 7.69604 12.1428C7.69604 11.5412 7.81551 10.9456 8.04753 10.3905C8.27956 9.83547 8.6195 9.332 9.04764 8.90936C9.47578 8.48672 9.9836 8.15331 10.5416 7.92848C11.0996 7.70365 11.6968 7.59188 12.2983 7.59966H12.3977C12.9993 7.59188 13.5964 7.70365 14.1544 7.92848C14.7124 8.15331 15.2203 8.48672 15.6484 8.90936C16.0765 9.332 16.4165 9.83547 16.6485 10.3905C16.8805 10.9456 17 11.5412 17 12.1428C17 12.7444 16.8805 13.3401 16.6485 13.8951C16.4165 14.4502 16.0765 14.9537 15.6484 15.3763C15.2203 15.7989 14.7124 16.1324 14.1544 16.3572C13.5964 16.582 12.9993 16.6938 12.3977 16.686ZM12.2998 9.08787C11.4896 9.08787 10.7126 9.40973 10.1396 9.98265C9.56673 10.5556 9.24486 11.3326 9.24486 12.1428C9.24486 12.9531 9.56673 13.7301 10.1396 14.303C10.7126 14.8759 11.4896 15.1978 12.2998 15.1978H12.3992C12.8004 15.1978 13.1977 15.1188 13.5683 14.9653C13.939 14.8117 14.2758 14.5867 14.5594 14.303C14.8431 14.0193 15.0681 13.6826 15.2217 13.3119C15.3752 12.9413 15.4542 12.544 15.4542 12.1428C15.4542 11.7416 15.3752 11.3444 15.2217 10.9737C15.0681 10.6031 14.8431 10.2663 14.5594 9.98265C14.2758 9.69897 13.939 9.47394 13.5683 9.32041C13.1977 9.16689 12.8004 9.08787 12.3992 9.08787H12.2998Z" fill="#F24E1E"/>
</svg>
