<svg width="25" height="25" viewBox="0 0 25 25" fill="none" xmlns="http://www.w3.org/2000/svg">
<path d="M21.875 19.2708C21.875 20.7094 20.7094 21.875 19.2708 21.875H5.72917C4.29115 21.875 3.125 20.7094 3.125 19.2708V5.72917C3.125 4.29062 4.29115 3.125 5.72917 3.125H19.2708C20.7094 3.125 21.875 4.29062 21.875 5.72917V19.2708Z" fill="#0288D1"/>
<path d="M6.25 9.89583H8.85417V18.75H6.25V9.89583ZM7.54427 8.85417H7.52969C6.7526 8.85417 6.25 8.275 6.25 7.55156C6.25 6.8125 6.76823 6.25 7.55937 6.25C8.35156 6.25 8.83958 6.8125 8.85417 7.55156C8.85417 8.27448 8.35156 8.85417 7.54427 8.85417ZM18.75 18.75H16.1458V14.0109C16.1458 12.8661 15.5078 12.0849 14.4833 12.0849C13.7016 12.0849 13.2786 12.612 13.0734 13.1214C12.9984 13.3036 13.0208 13.8078 13.0208 14.0625V18.75H10.4167V9.89583H13.0208V11.2583C13.3964 10.6771 13.9844 9.89583 15.4885 9.89583C17.3521 9.89583 18.7495 11.0677 18.7495 13.6844L18.75 18.75Z" fill="white"/>
</svg>
