<svg width="18" height="24" viewBox="0 0 18 24" fill="none" xmlns="http://www.w3.org/2000/svg">
<path d="M9.00226 1.13054e-07H9.02551C10.3369 0.00387753 11.6282 0.322014 12.7913 0.92775C13.9483 0.332232 15.2309 0.0218608 16.5323 0.0225001H17.2073V24H16.551C14.4793 24.0005 12.4279 23.592 10.5144 22.798C8.60083 22.0041 6.86283 20.8403 5.40001 19.3732C3.92927 17.9151 2.76413 16.1782 1.97278 14.2643C1.18142 12.3503 0.779748 10.2978 0.791256 8.22675V0.0210001H1.46626C2.76759 0.0209402 4.05014 0.331549 5.20726 0.927C6.37947 0.317747 7.68117 -0.00021889 9.00226 1.13054e-07ZM9.00226 0.654C7.67042 0.652602 6.3621 1.00485 5.21101 1.67475C4.07299 1.01919 2.78259 0.674416 1.46926 0.675H1.44751V8.22675C1.44623 10.2113 1.83597 12.1766 2.59448 14.0104C3.35298 15.8442 4.46538 17.5107 5.86812 18.9144C7.27086 20.3182 8.93644 21.4319 10.7697 22.1917C12.603 22.9516 14.568 23.3428 16.5525 23.343V0.675H16.5308C15.217 0.673854 13.926 1.01839 12.7875 1.674C11.6447 1.00758 10.3462 0.654933 9.02326 0.65175L9.00226 0.654ZM12.2543 3.408C12.7574 3.40817 13.2535 3.5255 13.7034 3.75069C14.1533 3.97588 14.5446 4.30274 14.8462 4.70539C15.1478 5.10803 15.3516 5.57539 15.4413 6.07043C15.531 6.56548 15.5041 7.0746 15.3629 7.55748C15.2217 8.04035 14.9699 8.48371 14.6276 8.85241C14.2853 9.22112 13.8619 9.50505 13.3908 9.6817C12.9198 9.85835 12.414 9.92288 11.9137 9.87017C11.4134 9.81745 10.9322 9.64895 10.5083 9.378L8.99251 10.8862L7.48501 9.3705C6.88664 9.74592 6.18196 9.91546 5.47832 9.85328C4.77467 9.79111 4.11064 9.50063 3.58738 9.02609C3.06412 8.55156 2.71033 7.91898 2.57989 7.22474C2.44945 6.5305 2.54953 5.81266 2.86487 5.18056C3.18021 4.54847 3.69353 4.03678 4.32662 3.72345C4.95971 3.41013 5.67788 3.31234 6.3717 3.44498C7.06552 3.57762 7.69696 3.93343 8.16983 4.45819C8.6427 4.98296 8.93107 5.64791 8.99101 6.35175L9.00676 6.3315L9.02251 6.35175C9.09718 5.54674 9.47011 4.79874 10.0681 4.25462C10.666 3.71051 11.4458 3.4096 12.2543 3.411V3.408ZM5.76001 8.78925C6.09851 8.7904 6.43254 8.71197 6.73516 8.5603C7.03778 8.40863 7.30051 8.18795 7.50217 7.91608C7.70384 7.6442 7.83878 7.32874 7.89611 6.99513C7.95345 6.66152 7.93158 6.3191 7.83226 5.9955C7.76056 6.1552 7.65112 6.29507 7.51336 6.40308C7.37561 6.51109 7.21366 6.584 7.04146 6.61552C6.86927 6.64704 6.692 6.63624 6.52491 6.58403C6.35782 6.53183 6.20593 6.43979 6.08231 6.31585C5.95869 6.1919 5.86706 6.03977 5.81529 5.87254C5.76353 5.70532 5.75318 5.52802 5.78516 5.35591C5.81713 5.1838 5.89046 5.02205 5.99883 4.88457C6.10721 4.7471 6.24737 4.63802 6.40726 4.56675C6.11074 4.47453 5.79783 4.44732 5.48985 4.48698C5.18187 4.52665 4.88606 4.63225 4.62259 4.7966C4.35912 4.96094 4.13418 5.18016 3.9631 5.43931C3.79203 5.69846 3.67884 5.99145 3.63126 6.29831C3.58368 6.60517 3.60282 6.91868 3.68738 7.21747C3.77193 7.51626 3.91992 7.79331 4.12125 8.02972C4.32258 8.26614 4.57252 8.45637 4.85402 8.58744C5.13553 8.71851 5.44199 8.78735 5.75251 8.78925H5.76001ZM12.2378 8.808C12.5488 8.80905 12.8565 8.7429 13.1396 8.61408C13.4227 8.48525 13.6747 8.29678 13.8783 8.06157C14.0819 7.82636 14.2322 7.54995 14.3191 7.25126C14.406 6.95256 14.4273 6.63862 14.3817 6.33092C14.336 6.02321 14.2244 5.729 14.0545 5.46841C13.8846 5.20782 13.6605 4.987 13.3974 4.82105C13.1343 4.6551 12.8384 4.54794 12.5301 4.50689C12.2217 4.46585 11.9081 4.4919 11.6108 4.58325C11.7707 4.65524 11.9107 4.76508 12.0187 4.90328C12.1267 5.04148 12.1995 5.20389 12.2307 5.37649C12.2619 5.54909 12.2506 5.7267 12.1979 5.89397C12.1451 6.06124 12.0524 6.21315 11.9278 6.33659C11.8032 6.46003 11.6504 6.55129 11.4826 6.60248C11.3148 6.65367 11.1371 6.66326 10.9648 6.63042C10.7925 6.59758 10.6308 6.5233 10.4937 6.41399C10.3565 6.30468 10.248 6.16362 10.1775 6.003C10.0769 6.32606 10.0536 6.66822 10.1093 7.00196C10.165 7.3357 10.2983 7.6517 10.4984 7.92454C10.6985 8.19738 10.9599 8.41946 11.2615 8.5729C11.563 8.72634 11.8964 8.80686 12.2348 8.808H12.2378Z" fill="white"/>
</svg>
