<svg width="21" height="21" viewBox="0 0 21 21" fill="none" xmlns="http://www.w3.org/2000/svg">
<mask id="mask0_289_5960" style="mask-type:luminance" maskUnits="userSpaceOnUse" x="0" y="0" width="21" height="21">
<path d="M21 0H0V21H21V0Z" fill="white"/>
</mask>
<g mask="url(#mask0_289_5960)">
<path d="M8.61855 7.36772C8.29015 7.23902 7.93875 7.17937 7.58627 7.1925C7.35855 7.1925 7.15774 7.1925 6.99105 7.20103C6.87138 7.19313 6.75124 7.19598 6.63208 7.20956V10.1515C6.7548 10.1601 6.86833 10.1692 6.97333 10.1692H7.4373C7.77881 10.1696 8.11827 10.1165 8.44333 10.0118C8.72223 9.92963 8.97136 9.76848 9.16061 9.54778C9.35593 9.28958 9.45211 8.96986 9.43164 8.64675C9.43984 8.37323 9.36996 8.10303 9.23017 7.86778C9.08469 7.64027 8.87043 7.46509 8.61855 7.36772ZM17.281 0.262501H3.71899C3.23021 0.26181 2.74609 0.357561 2.29438 0.54427C1.84267 0.730979 1.43223 1.00498 1.08658 1.35056C0.740928 1.69615 0.466859 2.10654 0.28007 2.55823C0.0932819 3.00991 -0.00255505 3.494 -0.00195028 3.98278V17.0179C-0.0023823 17.5065 0.0935821 17.9905 0.280448 18.442C0.467314 18.8936 0.741411 19.3038 1.08704 19.6492C1.43268 19.9947 1.84306 20.2686 2.29468 20.4552C2.74631 20.6418 3.23032 20.7375 3.71899 20.7368H17.281C17.7694 20.737 18.253 20.6409 18.7041 20.4541C19.1553 20.2672 19.5652 19.9932 19.9104 19.6478C20.2557 19.3025 20.5294 18.8924 20.716 18.4411C20.9026 17.9898 20.9985 17.5062 20.998 17.0179V3.98278C20.9987 3.49433 20.9029 3.01056 20.7164 2.55914C20.5299 2.10771 20.2561 1.6975 19.9109 1.35196C19.5657 1.00642 19.1557 0.732343 18.7044 0.545402C18.2532 0.358462 17.7695 0.262328 17.281 0.262501ZM10.8144 10.4567C10.4634 10.9462 9.97273 11.3184 9.40671 11.5244C8.77312 11.7388 8.1066 11.8395 7.43796 11.8217C7.22796 11.8217 7.08817 11.8217 7.00024 11.8132C6.9123 11.8046 6.79024 11.8046 6.62421 11.8046V14.614C6.62613 14.6285 6.62515 14.6432 6.62132 14.6573C6.61749 14.6713 6.61089 14.6845 6.6019 14.696C6.59292 14.7075 6.58173 14.7171 6.569 14.7242C6.55626 14.7313 6.54223 14.7358 6.52774 14.7374H4.83002C4.7598 14.7374 4.72502 14.7013 4.72502 14.6226V5.6175C4.72502 5.55647 4.75127 5.52103 4.8123 5.52103C4.96127 5.52103 5.10105 5.52103 5.30252 5.5125C5.50399 5.50397 5.73105 5.50397 5.96992 5.49216C6.2088 5.48034 6.46014 5.48363 6.73117 5.47444C7.00221 5.46525 7.26471 5.46591 7.52721 5.46591C8.13945 5.44823 8.74994 5.54001 9.32992 5.73694C9.76789 5.88758 10.1669 6.1337 10.4981 6.4575C10.7799 6.74039 10.9977 7.08058 11.1366 7.455C11.2682 7.81975 11.336 8.2045 11.3367 8.59228C11.365 9.25346 11.1821 9.90646 10.8144 10.4567ZM17.0192 13.8607C16.7745 14.2095 16.4343 14.4802 16.0394 14.6403C15.5352 14.8387 14.9962 14.9333 14.4546 14.9185C14.0554 14.9204 13.6571 14.8826 13.2655 14.8057C12.9569 14.7519 12.6569 14.6576 12.373 14.5254C12.3421 14.5108 12.3163 14.4872 12.299 14.4577C12.2816 14.4282 12.2736 14.3942 12.2758 14.3601V12.8376C12.2753 12.8225 12.2783 12.8076 12.2846 12.7939C12.2909 12.7803 12.3002 12.7683 12.3119 12.7588C12.3242 12.7515 12.3385 12.7483 12.3527 12.7499C12.3669 12.7514 12.3803 12.7575 12.3907 12.7673C12.7275 12.9663 13.0936 13.1109 13.4755 13.1959C13.8125 13.2837 14.1594 13.3278 14.5077 13.3271C14.7561 13.3407 15.0043 13.2985 15.2342 13.2038C15.3045 13.1714 15.3641 13.1196 15.4059 13.0545C15.4478 12.9894 15.4702 12.9136 15.4705 12.8363C15.4648 12.7657 15.4428 12.6974 15.4064 12.6368C15.37 12.5761 15.32 12.5247 15.2605 12.4865C14.9933 12.3139 14.7056 12.1754 14.4041 12.0743C13.9645 11.919 13.547 11.7075 13.1618 11.445C12.8879 11.249 12.6605 10.9951 12.4957 10.7015C12.3567 10.4247 12.288 10.1179 12.2955 9.80831C12.2968 9.43486 12.4001 9.06886 12.5941 8.74978C12.8163 8.39835 13.1353 8.1187 13.5129 7.94456C13.9978 7.72281 14.5281 7.61827 15.061 7.63941C15.424 7.63953 15.7865 7.66585 16.1457 7.71816C16.4042 7.75316 16.6571 7.82086 16.8985 7.91963C16.9367 7.93351 16.968 7.96176 16.9857 7.99837C16.9959 8.03253 17.0018 8.06779 17.0035 8.10338V9.52941C17.0035 9.54639 16.9996 9.56316 16.992 9.57833C16.9843 9.5935 16.9732 9.60664 16.9595 9.61669C16.9086 9.63497 16.8529 9.63497 16.802 9.61669C16.5378 9.47762 16.2549 9.37749 15.962 9.31941C15.6404 9.24665 15.3119 9.20859 14.9822 9.20588C14.8051 9.19986 14.6282 9.22043 14.4572 9.26691C14.3484 9.28993 14.2518 9.35232 14.1862 9.44213C14.1419 9.51311 14.1176 9.59474 14.116 9.67838C14.1199 9.76189 14.151 9.84184 14.2045 9.90609C14.2872 10.0035 14.3882 10.0838 14.5018 10.1423C14.702 10.2473 14.9133 10.3438 15.122 10.4311C15.5949 10.5902 16.0474 10.8048 16.4699 11.0703C16.7559 11.2496 16.9924 11.4978 17.1577 11.7922C17.2984 12.0709 17.3677 12.3803 17.3591 12.6925C17.3673 13.1073 17.2485 13.5147 17.0186 13.86L17.0192 13.8607Z" fill="#31A8FF"/>
</g>
</svg>
